<svg width="159" height="73" viewBox="0 0 159 73" fill="none" xmlns="http://www.w3.org/2000/svg">
<rect width="159" height="73" rx="4" fill="white"/>
<g clip-path="url(#clip0)">
<path d="M112.104 54.0905H112.393V54.9337H112.553V54.0905H112.841V53.9531H112.104V54.0905Z" fill="#FF0036"/>
<path d="M113.773 53.9531L113.494 54.7325L113.216 53.9531H112.99V54.9346H113.135V54.4576C113.135 54.351 113.132 54.2371 113.124 54.1161H113.129L113.413 54.9346H113.555L113.849 54.117H113.854C113.854 54.1334 113.852 54.1808 113.847 54.2594C113.842 54.3379 113.842 54.4014 113.847 54.4498V54.9346H114.001V53.9531H113.773Z" fill="#FF0036"/>
<path d="M63.0869 25.4883H51.1084V27.5132H56.0857V37.3402H58.1096V27.5132H63.0869V25.4883Z" fill="#FF0036"/>
<path d="M97.4707 37.3383H95.4331C94.4869 37.3372 93.5797 36.9609 92.9107 36.2919C92.2416 35.6228 91.8653 34.7157 91.8643 33.7695V25.4688H93.8882V33.7685C93.8884 34.1781 94.0513 34.5709 94.3409 34.8606C94.6306 35.1503 95.0234 35.3131 95.4331 35.3134H97.4707V37.3383Z" fill="#FF0036"/>
<path d="M105.979 37.3383H101.984C101.038 37.3372 100.131 36.9609 99.4615 36.2919C98.7924 35.6228 98.4161 34.7157 98.415 33.7695V25.4688H100.439V33.7685C100.439 34.1781 100.602 34.5709 100.892 34.8606C101.181 35.1503 101.574 35.3131 101.984 35.3134H105.979V37.3383Z" fill="#FF0036"/>
<path d="M76.4175 37.3381H74.3936V28.3601L73.4759 29.1051C72.5977 29.8121 71.5041 30.1976 70.3767 30.1976C69.2493 30.1976 68.1557 29.8121 67.2776 29.1051L66.3598 28.3611V37.3381H64.3359V26.718C64.3358 26.4834 64.4022 26.2535 64.5275 26.0551C64.6527 25.8566 64.8317 25.6978 65.0436 25.597C65.2555 25.4962 65.4916 25.4575 65.7246 25.4855C65.9576 25.5135 66.1779 25.607 66.3598 25.7552L68.5565 27.5327C69.0733 27.9489 69.717 28.1759 70.3806 28.1759C71.0443 28.1759 71.6879 27.9489 72.2048 27.5327L74.3985 25.7532C74.5807 25.6057 74.8009 25.5128 75.0337 25.4852C75.2664 25.4576 75.5023 25.4965 75.7139 25.5973C75.9255 25.6981 76.1042 25.8568 76.2294 26.0549C76.3546 26.2531 76.4212 26.4826 76.4214 26.717L76.4175 37.3381Z" fill="#FF0036"/>
<path d="M88.7339 37.3374H90.9354L86.3596 26.7684C86.1843 26.3632 85.8943 26.0182 85.5253 25.7758C85.1564 25.5334 84.7246 25.4043 84.2831 25.4043C83.8417 25.4043 83.4099 25.5334 83.0409 25.7758C82.672 26.0182 82.382 26.3632 82.2067 26.7684L77.627 37.3374H79.8324L81.5059 33.4761H87.0604L88.7339 37.3374ZM82.3834 31.4483L84.0648 27.5722C84.0832 27.5295 84.1138 27.4932 84.1527 27.4676C84.1916 27.4421 84.2371 27.4285 84.2836 27.4285C84.3302 27.4285 84.3757 27.4421 84.4146 27.4676C84.4535 27.4932 84.484 27.5295 84.5025 27.5722L86.1839 31.4512L82.3834 31.4483Z" fill="#FF0036"/>
<path d="M105.633 9.06003C106.214 9.06052 106.79 9.1762 107.326 9.40037C107.862 9.62455 108.349 9.95279 108.758 10.3661C109.167 10.7795 109.489 11.2697 109.708 11.8085C109.926 12.3473 110.035 12.924 110.029 13.5053V37.8186C110.027 39.4719 109.369 41.0568 108.2 42.226C107.031 43.3952 105.447 44.0533 103.794 44.0562H53.3001C51.6464 44.0541 50.0609 43.3963 48.8914 42.227C47.722 41.0577 47.0639 39.4724 47.0616 37.8186V13.5034C47.051 12.5982 47.32 11.7119 47.8317 10.9652C48.3435 10.2186 49.0731 9.64793 49.9211 9.33118C50.769 9.01442 51.6941 8.96696 52.57 9.19527C53.4459 9.42358 54.2301 9.91654 54.8156 10.6069L59.9882 16.7532C60.9268 17.8699 62.0987 18.7673 63.4213 19.3826C64.744 19.9978 66.1853 20.3157 67.6441 20.3142H89.4466C90.9054 20.3157 92.3467 19.9978 93.6694 19.3826C94.9921 18.7673 96.1639 17.8699 97.1025 16.7532L102.28 10.6069C102.693 10.1214 103.207 9.7315 103.786 9.46439C104.365 9.19728 104.995 9.0593 105.633 9.06003V9.06003ZM105.633 6.99884C104.696 6.99745 103.769 7.20048 102.918 7.59375C102.068 7.98703 101.313 8.5611 100.707 9.27597L95.5262 15.4262C94.7799 16.3119 93.8492 17.0239 92.7991 17.5123C91.749 18.0008 90.6048 18.2539 89.4466 18.2539H67.6431C66.4849 18.2539 65.3408 18.0008 64.2906 17.5123C63.2405 17.0239 62.3098 16.3119 61.5636 15.4262L56.386 9.27597C55.5267 8.26258 54.3758 7.53884 53.0902 7.20339C51.8046 6.86795 50.4468 6.93712 49.2019 7.40148C47.957 7.86584 46.8856 8.7028 46.1337 9.79827C45.3818 10.8937 44.9861 12.1944 45.0004 13.523V37.8186C45.0004 40.0196 45.8747 42.1304 47.431 43.6867C48.9873 45.2431 51.0982 46.1174 53.2991 46.1174H103.794C105.994 46.1163 108.104 45.2416 109.659 43.6853C111.215 42.1291 112.088 40.0189 112.088 37.8186V13.523C112.097 12.6697 111.936 11.8231 111.615 11.0323C111.295 10.2414 110.821 9.52189 110.221 8.91528C109.62 8.30867 108.906 7.82699 108.118 7.49805C107.331 7.16911 106.486 6.99944 105.633 6.99884V6.99884Z" fill="#FF0036"/>
<path d="M96.6008 54.8296C96.157 54.6453 95.6816 54.5493 95.2011 54.5469H95.1815C94.6458 54.5509 94.1161 54.6592 93.6218 54.8659C92.892 55.1743 92.269 55.6906 91.8305 56.3505C91.3919 57.0104 91.1571 57.7847 91.1553 58.577V58.577V58.5888C91.1607 59.6726 91.5927 60.7107 92.3578 61.4784C93.1229 62.2461 94.1595 62.6816 95.2433 62.6906H95.2894C95.8721 62.6842 96.4465 62.5524 96.9736 62.3041C97.5006 62.0558 97.968 61.6968 98.3439 61.2517L97.3261 60.438C97.0787 60.7251 96.7755 60.9588 96.4349 61.1251C96.0712 61.3066 95.6704 61.4016 95.2639 61.4028V61.4028C94.9494 61.4024 94.6374 61.3479 94.3413 61.2419C93.9125 61.0897 93.527 60.836 93.2175 60.5026C92.9079 60.1691 92.6837 59.7658 92.5638 59.3269L92.55 59.2768L98.8092 59.268L98.8151 58.1491C98.8142 57.4379 98.6039 56.7427 98.2105 56.1503C97.8171 55.5579 97.2579 55.0944 96.6027 54.8178L96.6008 54.8296ZM92.5255 58.0009L92.5373 57.9508C92.6418 57.516 92.8529 57.1141 93.1516 56.7814C93.4502 56.4486 93.8271 56.1954 94.248 56.0447C94.538 55.9415 94.8433 55.8884 95.151 55.8876C95.7199 55.887 96.2688 56.0975 96.6914 56.4782C97.114 56.859 97.3804 57.383 97.439 57.9488V57.994L92.5255 58.0009Z" fill="#FF0036"/>
<path d="M56.8019 51.7989L55.4297 51.8008L55.4447 62.5279L56.8168 62.5259L56.8019 51.7989Z" fill="#FF0036"/>
<path d="M81.7266 54.5654C80.6512 54.5659 79.6195 54.9911 78.8559 55.7484C78.0923 56.5057 77.6587 57.5339 77.6494 58.6093L77.6612 66.5301H79.0353L79.0284 61.4616C79.7321 62.2035 80.6888 62.654 81.709 62.7238H81.7365C82.7964 62.7319 83.8178 62.327 84.5843 61.5949C85.3508 60.8628 85.8022 59.861 85.8427 58.8019C85.8833 57.7427 85.5099 56.7093 84.8017 55.9207C84.0935 55.1321 83.106 54.6503 82.0486 54.5772L81.9652 54.5713C81.8856 54.5713 81.8061 54.5645 81.7266 54.5645V54.5654ZM84.4199 58.7546C84.4204 59.1071 84.3515 59.4564 84.2171 59.7823C84.0826 60.1083 83.8853 60.4046 83.6363 60.6542C83.3874 60.9039 83.0917 61.1021 82.7661 61.2375C82.4405 61.3729 82.0915 61.4429 81.7389 61.4434C81.3863 61.4439 81.0371 61.375 80.7111 61.2405C80.3852 61.1061 80.0889 60.9087 79.8392 60.6598C79.5895 60.4108 79.3913 60.1151 79.2559 59.7896C79.1205 59.464 79.0506 59.115 79.05 58.7624C79.05 58.7271 79.05 58.6917 79.05 58.6574C79.05 58.623 79.05 58.5877 79.05 58.5524C79.049 57.8403 79.3309 57.1569 79.8337 56.6527C80.3365 56.1484 81.019 55.8645 81.7311 55.8635C82.4432 55.8625 83.1265 56.1443 83.6308 56.6471C84.135 57.1499 84.4189 57.8324 84.4199 58.5445C84.4199 58.5798 84.4199 58.6152 84.4199 58.6495C84.4199 58.6839 84.4199 58.7192 84.4199 58.7546Z" fill="#FF0036"/>
<path d="M63.4837 61.1136L63.4798 57.7823L67.8839 57.7764L67.8819 56.4445L63.4778 56.4513L63.4729 53.1907L68.4306 53.1838L68.4286 51.7812L62.0693 51.7911L62.0841 62.5181L68.8301 62.5083L68.8281 61.1057L63.4837 61.1136Z" fill="#FF0036"/>
<path d="M50.5162 51.8027H49.1028L45 62.5445H46.3447L47.3262 59.966L52.3094 59.9592L53.3027 62.5347H54.6464L50.5162 51.8027ZM47.866 58.5527L49.8095 53.4625L51.7725 58.5468L47.866 58.5527Z" fill="#FF0036"/>
<path d="M77.0384 54.793L75.414 54.7949L73.2419 57.6217L71.0619 54.8018L69.4375 54.8038L72.4125 58.6513L69.4493 62.5077L71.0737 62.5058L73.2448 59.679L75.4258 62.4989L77.0502 62.4969L74.0752 58.6494L77.0384 54.793Z" fill="#FF0036"/>
<path d="M104.667 58.6026C104.42 58.4191 104.146 58.2768 103.854 58.1815C103.533 58.0744 103.205 57.9891 102.872 57.9263C102.618 57.8825 102.372 57.8275 102.134 57.7614C101.918 57.7034 101.707 57.6262 101.504 57.5308C101.342 57.4574 101.195 57.3534 101.072 57.2246C100.967 57.1093 100.911 56.9582 100.914 56.8025C100.912 56.6345 100.961 56.4696 101.055 56.3304C101.148 56.1931 101.269 56.0773 101.411 55.9908C101.563 55.8999 101.729 55.8337 101.902 55.7945C102.078 55.7509 102.259 55.7285 102.441 55.7277H102.539C102.858 55.7386 103.171 55.8233 103.453 55.9752C103.735 56.1271 103.977 56.342 104.162 56.6032L105.186 55.9113C104.888 55.4855 104.491 55.1382 104.029 54.8989C103.568 54.6597 103.056 54.5355 102.536 54.5371C102.171 54.5356 101.807 54.5865 101.456 54.6883C101.126 54.7824 100.814 54.9282 100.53 55.1202C100.257 55.3043 100.031 55.5484 99.868 55.8337C99.6986 56.1373 99.6133 56.4805 99.6207 56.828C99.6063 57.1694 99.684 57.5084 99.8454 57.8095C99.9925 58.0609 100.197 58.2736 100.443 58.4299C100.713 58.601 101.007 58.7332 101.314 58.8225C101.645 58.9213 101.993 59.009 102.358 59.0855C102.568 59.1294 102.773 59.1788 102.972 59.2337C103.158 59.2833 103.337 59.3583 103.503 59.4565C103.649 59.5428 103.777 59.6584 103.877 59.7961C103.976 59.9483 104.026 60.1278 104.018 60.3095C104.024 60.4999 103.972 60.6877 103.87 60.8483C103.768 61.0008 103.634 61.1286 103.477 61.2223C103.306 61.3243 103.119 61.3972 102.923 61.4382C102.741 61.4786 102.555 61.5009 102.368 61.505C101.976 61.5053 101.59 61.4129 101.24 61.2353C100.891 61.0577 100.588 60.8 100.358 60.4832L99.3213 61.292C99.6989 61.7288 100.166 62.0793 100.691 62.3196C101.216 62.56 101.787 62.6845 102.364 62.6848C102.731 62.6783 103.096 62.6322 103.453 62.5474C103.807 62.4653 104.144 62.3218 104.448 62.1233C104.739 61.9311 104.98 61.6724 105.152 61.3685C105.337 61.0223 105.428 60.6334 105.416 60.2408C105.428 59.9028 105.36 59.5667 105.219 59.2593C105.09 58.9994 104.903 58.7729 104.672 58.5977" fill="#FF0036"/>
<path d="M111.889 59.2533C111.76 58.9935 111.573 58.767 111.342 58.5918C111.095 58.4082 110.821 58.266 110.529 58.1707C110.208 58.0634 109.88 57.9782 109.547 57.9155C109.293 57.8717 109.047 57.8167 108.809 57.7506C108.593 57.6926 108.382 57.6154 108.179 57.52C108.017 57.4465 107.87 57.3426 107.747 57.2137C107.642 57.0985 107.586 56.9474 107.589 56.7917C107.586 56.6236 107.635 56.4588 107.729 56.3196C107.823 56.1819 107.944 56.0658 108.086 55.979C108.238 55.8881 108.404 55.8219 108.577 55.7827C108.753 55.7391 108.934 55.7167 109.115 55.7159H109.214C109.533 55.7268 109.846 55.8115 110.128 55.9634C110.41 56.1153 110.652 56.3302 110.837 56.5915V56.5915L111.86 55.9044C111.56 55.4804 111.163 55.1349 110.702 54.8969C110.241 54.6589 109.729 54.5355 109.21 54.5371H109.192C108.833 54.537 108.476 54.5879 108.132 54.6883C107.802 54.7823 107.489 54.9281 107.205 55.1202C106.933 55.3042 106.707 55.5484 106.544 55.8337C106.374 56.1373 106.289 56.4805 106.296 56.828C106.282 57.1694 106.36 57.5084 106.521 57.8095C106.668 58.0609 106.873 58.2735 107.119 58.4298C107.389 58.6011 107.682 58.7333 107.99 58.8225C108.321 58.9213 108.669 59.0093 109.034 59.0865C109.244 59.1303 109.448 59.1797 109.647 59.2347C109.833 59.2843 110.012 59.3593 110.177 59.4575C110.324 59.5437 110.451 59.6593 110.551 59.7971C110.651 59.9492 110.7 60.1288 110.693 60.3104C110.699 60.5009 110.647 60.6886 110.545 60.8493C110.443 61.0017 110.309 61.1295 110.152 61.2233C109.98 61.3252 109.793 61.3981 109.598 61.4392C109.416 61.4796 109.23 61.502 109.043 61.5059V61.5059H109.029C108.64 61.5071 108.255 61.4164 107.908 61.241C107.56 61.0657 107.258 60.8108 107.028 60.4969L105.99 61.2772C106.368 61.7141 106.835 62.0646 107.36 62.3049C107.885 62.5452 108.456 62.6698 109.033 62.67C109.4 62.6668 109.765 62.622 110.122 62.5365C110.476 62.4545 110.813 62.3109 111.117 62.1125C111.408 61.9204 111.649 61.6617 111.82 61.3577C112.006 61.0115 112.097 60.6225 112.085 60.23C112.096 59.892 112.029 59.5558 111.888 59.2484" fill="#FF0036"/>
<path d="M88.1769 54.757H86.8027L86.8135 58.4308C86.8135 58.4897 86.8135 58.5506 86.8135 58.6095L86.8214 62.4786H88.1955L88.1896 58.6134C88.1883 57.8966 88.4713 57.2086 88.9766 56.7002C89.4818 56.1918 90.1681 55.9046 90.8849 55.9015V54.5273C89.8904 54.5302 88.9311 54.8956 88.1867 55.555L88.1769 54.757Z" fill="#FF0036"/>
<path d="M60.1134 54.8633L58.7412 54.8652L58.7519 62.5241L60.1241 62.5222L60.1134 54.8633Z" fill="#FF0036"/>
<path d="M59.4238 50.3164C59.4159 50.3164 59.4081 50.318 59.4008 50.321C59.3936 50.324 59.387 50.3284 59.3814 50.3339C59.3759 50.3395 59.3714 50.3461 59.3684 50.3534C59.3654 50.3606 59.3639 50.3684 59.3639 50.3763C59.3657 50.9065 59.1572 51.4157 58.784 51.7924C58.4109 52.1691 57.9035 52.3823 57.3733 52.3854C57.3575 52.3854 57.3422 52.3917 57.331 52.403C57.3198 52.4142 57.3135 52.4294 57.3135 52.4453C57.3135 52.4612 57.3198 52.4764 57.331 52.4876C57.3422 52.4989 57.3575 52.5052 57.3733 52.5052C57.903 52.5067 58.4105 52.7181 58.7847 53.093C59.1589 53.4679 59.3693 53.9758 59.3698 54.5055C59.3698 54.5214 59.3761 54.5366 59.3873 54.5478C59.3985 54.5591 59.4138 54.5654 59.4296 54.5654C59.4453 54.5651 59.4603 54.5587 59.4713 54.5475C59.4824 54.5363 59.4885 54.5212 59.4885 54.5055C59.4888 53.9766 59.6982 53.4692 60.0711 53.0941C60.444 52.719 60.9501 52.5066 61.4791 52.5032C61.4949 52.5032 61.5102 52.4969 61.5214 52.4857C61.5326 52.4745 61.5389 52.4592 61.5389 52.4433C61.5389 52.4275 61.5326 52.4122 61.5214 52.401C61.5102 52.3898 61.4949 52.3835 61.4791 52.3835C60.9494 52.3819 60.4419 52.1705 60.0677 51.7956C59.6935 51.4207 59.4832 50.9128 59.4826 50.3831V50.3773C59.4826 50.3614 59.4763 50.3462 59.4651 50.3349C59.4539 50.3237 59.4387 50.3174 59.4228 50.3174" fill="#FF0036"/>
</g>
<defs>
<clipPath id="clip0">
<rect width="69" height="59.5293" fill="white" transform="translate(45 7)"/>
</clipPath>
</defs>
</svg>
