<svg width="137" height="103" viewBox="0 0 137 103" fill="none" xmlns="http://www.w3.org/2000/svg">
<rect width="137" height="103" rx="4" fill="white"/>
<g clip-path="url(#clip0)">
<path fill-rule="evenodd" clip-rule="evenodd" d="M48.3053 39.7512C48.3053 38.3086 47.7435 36.9523 46.7236 35.9322C45.7034 34.9122 44.3471 34.3505 42.9048 34.3505H31.3505V39.7512V45.1519H42.9048C44.3471 45.1519 45.7034 44.5901 46.7236 43.5699C47.7435 42.55 48.3053 41.1937 48.3053 39.7512ZM53.656 39.7512C53.656 45.6889 48.8426 50.5023 42.9048 50.5023H30.3711H27.9593H26V39.7512V29H42.9048C48.8426 29 53.656 33.8134 53.656 39.7512ZM109.567 39.049C110.182 39.6636 110.665 40.38 111.003 41.1785C111.353 42.0064 111.53 42.8843 111.53 43.788C111.53 44.6914 111.353 45.5695 111.003 46.3974C110.665 47.1959 110.182 47.9123 109.567 48.527C108.953 49.1416 108.236 49.6245 107.438 49.9621C106.61 50.3122 105.732 50.49 104.828 50.49H86.562C85.0916 50.49 83.8994 49.2975 83.8994 47.8271C83.8994 46.3567 85.0916 45.1645 86.562 45.1645H104.828C105.587 45.1645 106.205 44.547 106.205 43.788C106.205 43.0289 105.587 42.4114 104.828 42.4114V42.4201H90.6033C89.6994 42.4201 88.8212 42.2426 87.993 41.8923C87.1943 41.5543 86.4779 41.0714 85.863 40.4565C85.2481 39.8419 84.7652 39.1252 84.4273 38.3265C84.077 37.4983 83.8994 36.6202 83.8994 35.7162C83.8994 34.8126 84.077 33.9341 84.4273 33.106C84.7652 32.3075 85.2481 31.5908 85.863 30.9759C86.4779 30.361 87.1943 29.8782 87.993 29.5405C88.8212 29.1901 89.6994 29.0124 90.6033 29.0124H107.464C108.934 29.0124 110.127 30.2045 110.127 31.6752C110.127 33.1457 108.934 34.3378 107.464 34.3378H90.6033C89.843 34.3378 89.2249 34.9562 89.2249 35.7162C89.2249 36.4763 89.843 37.0946 90.6033 37.0946H104.828V37.0859C105.732 37.0859 106.61 37.2635 107.438 37.6138C108.236 37.9515 108.953 38.4343 109.567 39.049ZM77.2298 29H82.5555V47.8271C82.5555 48.9041 81.9067 49.8751 80.9118 50.2872C80.5825 50.4237 80.2361 50.49 79.8932 50.49C79.2004 50.49 78.5192 50.2194 78.0098 49.7099L60.25 36.8729V50.5023H54.9247V31.6752C54.9247 30.5983 55.5736 29.6273 56.5685 29.2151C57.5634 28.803 58.7088 29.0308 59.4702 29.7924L77.2298 42.6294V29ZM44.1276 63.6847H39.9004C39.6682 63.6847 39.4688 63.6081 39.3239 63.4635C39.1632 63.3028 39.0848 63.0995 39.0848 62.8423V57.8174C39.0848 57.5578 39.1624 57.349 39.3152 57.1965C39.4741 57.0487 39.6697 56.9753 39.9004 56.9753C40.1308 56.9753 40.3264 57.0487 40.4816 57.1928C40.6378 57.349 40.7154 57.5578 40.7154 57.8174V62.2148H43.2336V57.8174C43.2336 57.5578 43.3112 57.349 43.464 57.1965C43.6226 57.0487 43.8183 56.9753 44.0487 56.9753C44.2793 56.9753 44.475 57.0487 44.6302 57.1928C44.7867 57.349 44.8642 57.5578 44.8642 57.8174V62.2148H44.9431C45.1751 62.2148 45.3745 62.291 45.5191 62.4359C45.6801 62.5966 45.7584 62.7999 45.7584 63.0569V64.2909C45.7584 64.5502 45.6809 64.759 45.5281 64.9116C45.3689 65.0599 45.1735 65.1333 44.9431 65.1333C44.7125 65.1333 44.5166 65.0599 44.3617 64.915C44.2052 64.7596 44.1276 64.5505 44.1276 64.2909V63.6847ZM52.0741 62.8959C52.0741 63.1552 51.9965 63.3641 51.8437 63.5166C51.6846 63.6649 51.4889 63.7381 51.2585 63.7381C51.0284 63.7381 50.833 63.6649 50.6775 63.5206C50.5211 63.3641 50.4435 63.1552 50.4435 62.8959V59.9606L47.7877 63.387C47.6081 63.62 47.3798 63.7381 47.1102 63.7381C46.8798 63.7381 46.6844 63.6649 46.529 63.5206C46.3722 63.3641 46.2947 63.1552 46.2947 62.8959V57.8174C46.2947 57.5578 46.3722 57.3487 46.525 57.1965C46.6839 57.0487 46.8796 56.9753 47.1102 56.9753C47.3406 56.9753 47.5363 57.0487 47.6914 57.1928C47.8479 57.349 47.9255 57.5578 47.9255 57.8174V60.7935L50.5805 57.3269C50.7612 57.0936 50.9892 56.9753 51.2585 56.9753C51.4892 56.9753 51.6851 57.0487 51.84 57.1928C51.9965 57.3487 52.0741 57.5578 52.0741 57.8174V62.8959ZM55.6737 59.2506L55.6345 59.2375C55.565 59.2288 55.519 59.223 55.4788 59.223C55.1839 59.223 54.9359 59.3235 54.7208 59.5307C54.5046 59.7472 54.3986 60.0091 54.3986 60.3297C54.3986 60.654 54.507 60.9225 54.7208 61.1285C54.9302 61.3299 55.1779 61.4278 55.4788 61.4278C55.5222 61.4278 55.5877 61.4159 55.6737 61.3928V59.2506ZM57.2806 61.4044C57.3419 61.4217 57.3821 61.4278 57.4279 61.4278C57.7285 61.4278 57.9765 61.3299 58.1858 61.1285C58.3996 60.9223 58.508 60.6538 58.508 60.3297C58.508 60.0091 58.402 59.7475 58.184 59.5292C57.9704 59.3235 57.7227 59.223 57.4279 59.223C57.3805 59.223 57.325 59.2312 57.2695 59.2391L57.2332 59.2512V61.3944L57.2806 61.4044ZM57.2685 62.8995C57.268 63.157 57.1909 63.3645 57.0386 63.5168C56.879 63.6648 56.6833 63.738 56.4534 63.738C56.2231 63.738 56.0277 63.6648 55.8722 63.5205C55.7163 63.3645 55.6387 63.157 55.6381 62.8995C55.59 62.9077 55.5372 62.9156 55.4803 62.9232C55.3433 62.9413 55.2287 62.9511 55.1479 62.9511C54.4525 62.9511 53.8658 62.6881 53.4034 62.1697C52.9469 61.6755 52.7141 61.0556 52.7141 60.3297C52.7141 59.6057 52.94 58.9834 53.3856 58.4811C53.8479 57.9625 54.441 57.6995 55.1479 57.6995C55.2263 57.6995 55.3375 57.7087 55.4877 57.7274C55.5427 57.7313 55.5937 57.7371 55.6403 57.7434C55.6539 57.5183 55.7305 57.3344 55.8683 57.1964C56.0271 57.0485 56.2228 56.9754 56.4534 56.9754C56.6838 56.9754 56.8792 57.0485 57.0347 57.1927C57.1762 57.3339 57.253 57.5183 57.2666 57.7434C57.3142 57.7368 57.3679 57.731 57.4265 57.7268C57.5691 57.7087 57.6803 57.6995 57.7587 57.6995C58.4659 57.6995 59.059 57.9625 59.5211 58.4808C59.9663 58.9834 60.1925 59.6054 60.1925 60.3297C60.1925 61.0522 59.9632 61.6716 59.5113 62.1707C59.0498 62.6881 58.4599 62.9511 57.7587 62.9511C57.678 62.9511 57.5633 62.9413 57.4265 62.9232C57.3695 62.9156 57.3169 62.9077 57.2685 62.8995ZM62.4721 60.1046H63.2393C63.4786 60.1046 63.6627 60.0294 63.8026 59.875C63.9475 59.7299 64.0154 59.5439 64.0154 59.3014C64.0154 59.0603 63.9465 58.8709 63.805 58.7218C63.6622 58.5716 63.4773 58.4988 63.2393 58.4988H62.4721V60.1046ZM61.6568 63.738C61.4264 63.738 61.231 63.6649 61.0756 63.5205C60.9191 63.3643 60.8415 63.1554 60.8415 62.8959V57.871C60.8415 57.3281 61.1408 57.0291 61.6836 57.0291H63.2664C63.9623 57.0291 64.5456 57.2403 65.0001 57.6569C65.4708 58.0895 65.6999 58.6305 65.6999 59.3104C65.6999 59.9852 65.4611 60.5417 64.9903 60.9649C64.5422 61.3747 63.9957 61.5743 63.32 61.5743H62.4721V62.8959C62.4721 63.1554 62.3945 63.3643 62.2417 63.5168C62.0826 63.6649 61.8869 63.738 61.6568 63.738ZM68.1808 59.0126C67.9212 59.3645 67.7894 59.8168 67.7894 60.3565C67.7894 60.9104 67.918 61.3656 68.1724 61.7104C68.4498 62.086 68.827 62.2685 69.3254 62.2685C69.8235 62.2685 70.2009 62.086 70.4786 61.7102C70.7327 61.3656 70.8613 60.9104 70.8613 60.3565C70.8613 59.8168 70.7295 59.3645 70.4697 59.0121C70.1854 58.6307 69.8108 58.445 69.3254 58.445C68.8396 58.445 68.4651 58.6307 68.1808 59.0126ZM72.546 60.3565C72.546 61.3215 72.2475 62.1423 71.6595 62.7961C71.0538 63.457 70.2687 63.7921 69.3254 63.7921C68.3878 63.7921 67.6059 63.457 67.0012 62.7971C66.4066 62.1465 66.1047 61.3254 66.1047 60.3565C66.1047 59.3787 66.4066 58.5573 67.002 57.9159C67.6053 57.2563 68.3872 56.9217 69.3254 56.9217C70.2551 56.9217 71.0343 57.2626 71.6411 57.9351C72.2496 58.5997 72.546 59.3918 72.546 60.3565ZM74.9022 59.5504H75.455C75.6386 59.5504 75.7748 59.503 75.8837 59.4015C75.9865 59.3053 76.0344 59.174 76.0344 58.9884C76.0344 58.8292 75.9847 58.7177 75.8729 58.6267C75.7653 58.5407 75.6283 58.4987 75.455 58.4987H74.9022V59.5504ZM76.5081 61.5815C76.5081 61.3201 76.4171 61.02 75.7054 61.02H74.9022V62.2148H75.8124C76.0218 62.2148 76.1867 62.1593 76.3158 62.0452C76.4444 61.9376 76.5081 61.7825 76.5081 61.5815ZM78.1926 61.5994C78.1926 62.2627 77.9835 62.7832 77.5711 63.1474C77.1769 63.5033 76.639 63.6847 75.9734 63.6847H74.1316C73.8946 63.6847 73.6913 63.6124 73.527 63.4704C73.3586 63.3131 73.2716 63.1033 73.2716 62.86V57.844C73.2716 57.5918 73.3531 57.3877 73.5143 57.2378C73.6753 57.0979 73.8786 57.029 74.1227 57.029H75.8393C76.3542 57.029 76.7871 57.186 77.1261 57.4958C77.483 57.8143 77.665 58.2357 77.665 58.7469C77.665 59.2995 77.4588 59.7255 77.0514 60.0175C77.3226 60.1116 77.5606 60.27 77.7615 60.4919C78.0474 60.8073 78.1926 61.1799 78.1926 61.5994ZM80.7901 60.9093H82.0904L81.4471 58.9029L80.7901 60.9093ZM79.2939 63.7381C79.0864 63.7381 78.8984 63.6658 78.7343 63.5238C78.5728 63.3844 78.4873 63.1921 78.4873 62.9673C78.4873 62.891 78.4984 62.8145 78.5197 62.7398L78.5652 62.6075L80.3562 57.7583C80.5682 57.2026 80.9358 56.9217 81.4487 56.9217C81.9744 56.9217 82.3524 57.2121 82.542 57.7612L84.2938 62.6233C84.3204 62.6848 84.3433 62.7674 84.3548 62.8484L84.3591 62.875C84.3677 62.9247 84.374 62.9675 84.374 63.0031C84.374 63.2148 84.2951 63.3947 84.1397 63.5385C83.9966 63.6708 83.8194 63.7381 83.6121 63.7381C83.2113 63.7381 82.9381 63.5422 82.8216 63.1719L82.5854 62.4326H80.3112L80.075 63.164C79.9572 63.539 79.6871 63.7381 79.2939 63.7381ZM86.7369 58.7216C86.6151 58.8289 86.5536 58.9883 86.5536 59.1942C86.5536 59.393 86.6162 59.5532 86.7403 59.6699C86.8655 59.788 87.0291 59.8451 87.2403 59.8451H88.0164V58.5522H87.2403C87.0307 58.5522 86.8661 58.6074 86.7369 58.7216ZM84.8244 62.9046C84.8244 62.7363 84.8999 62.5661 85.0421 62.4128L86.3863 60.9736C85.9808 60.8732 85.6557 60.7046 85.3975 60.4621C85.0469 60.1307 84.8691 59.7041 84.8691 59.1942C84.8691 57.7574 85.667 57.0289 87.2403 57.0289H88.8138C89.3511 57.0289 89.647 57.3282 89.647 57.871V62.8959C89.647 63.1552 89.5697 63.364 89.4166 63.5166C89.2575 63.6649 89.0621 63.738 88.8317 63.738C88.6016 63.738 88.4062 63.6649 88.2507 63.5205C88.094 63.364 88.0164 63.1552 88.0164 62.8959V61.3366L86.2704 63.4532C86.1825 63.5655 86.0555 63.6318 85.9679 63.6715C85.6136 63.8122 85.2894 63.7315 85.0513 63.4774C84.9028 63.3185 84.8244 63.1205 84.8244 62.9046ZM94.9911 63.387C94.8112 63.62 94.5832 63.7381 94.3136 63.7381C94.0832 63.7381 93.8878 63.665 93.7324 63.5206C93.5756 63.3641 93.498 63.1553 93.498 62.896V57.8175C93.498 57.5576 93.5756 57.3488 93.7284 57.1963C93.8873 57.0484 94.083 56.9753 94.3136 56.9753C94.544 56.9753 94.7397 57.0484 94.8948 57.1928C95.0513 57.3491 95.1286 57.5576 95.1286 57.8175V60.7936L97.7839 57.327C97.9646 57.0934 98.1926 56.9753 98.4619 56.9753C98.6926 56.9753 98.8882 57.0484 99.0434 57.1928C99.1999 57.3488 99.2775 57.5576 99.2775 57.8175V62.896C99.2775 63.1553 99.1999 63.3641 99.0471 63.5167C98.8877 63.665 98.6923 63.7381 98.4619 63.7381C98.2318 63.7381 98.0364 63.665 97.8809 63.5206C97.7245 63.3641 97.6469 63.1553 97.6469 62.896V59.9606L94.9911 63.387ZM29.7622 71.3127C29.7622 71.0513 29.671 70.7512 28.9593 70.7512H28.1564V71.9455H29.0663C29.276 71.9455 29.4406 71.8902 29.57 71.7764C29.6986 71.6688 29.7622 71.5139 29.7622 71.3127ZM30.7551 69.7581C31.2143 70.1195 31.4465 70.6484 31.4465 71.3306C31.4465 71.9939 31.2374 72.5143 30.8253 72.8783C30.4308 73.2347 29.893 73.4156 29.2276 73.4156H27.3858C27.1485 73.4156 26.9452 73.3436 26.7811 73.2016C26.6126 73.044 26.5255 72.8341 26.5255 72.5911V67.5752C26.5255 67.323 26.6073 67.1192 26.768 66.9685C26.9295 66.8291 27.1328 66.7599 27.3768 66.7599H30.0413C30.288 66.7599 30.486 66.8388 30.6301 66.994C30.758 67.1447 30.8208 67.3206 30.8208 67.5218C30.8208 67.7248 30.7556 67.8945 30.6217 68.0402C30.4823 68.2004 30.2861 68.2835 30.0413 68.2835H28.1564V69.281H29.0663C29.7746 69.281 30.3427 69.4417 30.7551 69.7581ZM38.1315 66.7061C38.3614 66.7061 38.557 66.7792 38.7127 66.9236C38.8695 67.0803 38.9471 67.2894 38.9471 67.5485V72.6273C38.9471 72.8861 38.8695 73.0949 38.7169 73.2477C38.557 73.396 38.3614 73.4691 38.1315 73.4691C37.9011 73.4691 37.7057 73.396 37.5503 73.2516C37.3935 73.0949 37.3159 72.8861 37.3159 72.6273V67.5485C37.3159 67.2894 37.3935 67.0803 37.5461 66.9275C37.7057 66.7792 37.9011 66.7061 38.1315 66.7061ZM35.1879 71.268C35.1879 71.0876 35.1264 70.9485 34.9988 70.8425C34.8539 70.7207 34.6535 70.6618 34.385 70.6618H33.7162V71.9455H34.4923C34.7019 71.9455 34.8691 71.8847 34.9893 71.7648C35.1222 71.6388 35.1879 71.4726 35.1879 71.268ZM36.1844 69.6984C36.6407 70.0674 36.8724 70.6016 36.8724 71.2859C36.8724 71.9476 36.6641 72.4765 36.2541 72.8581C35.8557 73.2279 35.317 73.4157 34.6535 73.4157H32.9458C32.7086 73.4157 32.5053 73.3436 32.3412 73.2016C32.1726 73.0441 32.0856 72.8342 32.0856 72.5912V67.5484C32.0856 67.2891 32.1631 67.08 32.3159 66.9275C32.4753 66.7794 32.6707 66.706 32.9011 66.706C33.1312 66.706 33.3267 66.7794 33.4821 66.9235C33.6386 67.08 33.7162 67.2891 33.7162 67.5484V69.1916H34.4923C35.2026 69.1916 35.772 69.3623 36.1844 69.6984ZM43.5012 66.76C43.7276 66.76 43.9088 66.8366 44.0545 66.9941C44.1868 67.1374 44.2541 67.3147 44.2541 67.5217C44.2541 67.726 44.1963 67.8941 44.0769 68.0353C43.9459 68.1992 43.7513 68.2836 43.5012 68.2836H42.6717V72.6273C42.6717 72.8861 42.5941 73.0949 42.4415 73.2477C42.2819 73.3958 42.0865 73.4692 41.8561 73.4692C41.6257 73.4692 41.4303 73.3958 41.2749 73.2517C41.1181 73.0949 41.0408 72.8861 41.0408 72.6273V68.2836H40.211C39.9609 68.2836 39.7663 68.1992 39.633 68.0324C39.5162 67.8941 39.4581 67.726 39.4581 67.5217C39.4581 67.3147 39.5254 67.1374 39.6577 66.9941C39.8034 66.8366 39.9846 66.76 40.211 66.76H43.5012ZM46.3415 68.7436C46.0819 69.0955 45.9502 69.5478 45.9502 70.0875C45.9502 70.6414 46.0788 71.0966 46.3331 71.4417C46.6106 71.817 46.988 71.9995 47.4861 71.9995C47.9842 71.9995 48.3616 71.817 48.6394 71.4414C48.8934 71.0966 49.022 70.6414 49.022 70.0875C49.022 69.5478 48.8903 69.0955 48.6304 68.7431C48.3461 68.3617 47.9719 68.1763 47.4861 68.1763C47.0001 68.1763 46.6258 68.3617 46.3415 68.7436ZM47.4861 66.6527C48.4161 66.6527 49.1953 66.9938 49.8018 67.6661C50.4104 68.3304 50.7068 69.1226 50.7068 70.0875C50.7068 71.0525 50.4083 71.8733 49.8202 72.5274C49.2145 73.188 48.4295 73.5231 47.4861 73.5231C46.5485 73.5231 45.7666 73.188 45.1622 72.5284C44.5673 71.8772 44.2654 71.0561 44.2654 70.0875C44.2654 69.1097 44.5673 68.2886 45.1628 67.6469C45.7661 66.9875 46.548 66.6527 47.4861 66.6527ZM53.0629 69.2811H53.6157C53.7993 69.2811 53.9355 69.234 54.0444 69.1328C54.1473 69.0365 54.1951 68.9053 54.1951 68.7196C54.1951 68.5605 54.1454 68.4487 54.0336 68.3577C53.9258 68.2717 53.7888 68.2297 53.6157 68.2297H53.0629V69.2811ZM54.6688 71.3128C54.6688 71.0511 54.5778 70.7513 53.8661 70.7513H53.0629V71.9456H53.9731C54.1828 71.9456 54.3474 71.8903 54.4765 71.7762C54.6051 71.6689 54.6688 71.5137 54.6688 71.3128ZM55.2121 69.7487C55.4833 69.8426 55.7213 70.0012 55.9222 70.2229C56.2081 70.5385 56.3533 70.9112 56.3533 71.3307C56.3533 71.9937 56.1442 72.5144 55.7318 72.8784C55.3373 73.2345 54.7998 73.4157 54.1341 73.4157H52.2923C52.0554 73.4157 51.8521 73.3434 51.6877 73.2014C51.5194 73.0441 51.4323 72.8343 51.4323 72.5912V67.5753C51.4323 67.3231 51.5138 67.119 51.6748 66.9686C51.8363 66.8292 52.0393 66.76 52.2834 66.76H54C54.5149 66.76 54.9478 66.9173 55.2868 67.2268C55.6437 67.5451 55.8257 67.9667 55.8257 68.4782C55.8257 69.0307 55.6195 69.4565 55.2121 69.7487ZM60.2512 70.6403L59.6079 68.6341L58.9509 70.6403H60.2512ZM62.5154 72.5794L62.5201 72.6068C62.5283 72.6565 62.5348 72.6988 62.5348 72.7341C62.5348 72.9458 62.4559 73.1257 62.3005 73.2695C62.1574 73.4018 61.9799 73.4691 61.7729 73.4691C61.3721 73.4691 61.0989 73.2732 60.9821 72.9029L60.7462 72.1639H58.4718L58.2359 72.895C58.118 73.27 57.8477 73.4691 57.4545 73.4691C57.2472 73.4691 57.0589 73.3968 56.8948 73.2548C56.7336 73.1154 56.6481 72.9231 56.6481 72.6985C56.6481 72.622 56.6592 72.5455 56.6805 72.4708L56.726 72.3385L58.5167 67.4893C58.729 66.9336 59.0964 66.6527 59.6095 66.6527C60.135 66.6527 60.5129 66.9428 60.7028 67.4919L62.4546 72.3543C62.4812 72.4158 62.5038 72.4984 62.5154 72.5794ZM64.8976 68.4528C64.7759 68.5601 64.7143 68.7193 64.7143 68.9252C64.7143 69.124 64.7772 69.2842 64.9013 69.4012C65.0262 69.519 65.1898 69.5761 65.401 69.5761H66.1771V68.2835H65.401C65.1914 68.2835 65.0268 68.3387 64.8976 68.4528ZM66.9745 66.7599C67.5119 66.7599 67.8077 67.0589 67.8077 67.602V72.6272C67.8077 72.8862 67.7304 73.095 67.5773 73.2476C67.4182 73.3959 67.2228 73.469 66.9924 73.469C66.7623 73.469 66.5669 73.3959 66.4115 73.2515C66.2547 73.095 66.1771 72.8862 66.1771 72.6272V71.0676L64.4311 73.1842C64.3432 73.2965 64.2162 73.3628 64.1286 73.4025C63.7744 73.5432 63.4501 73.4622 63.2121 73.2084C63.0635 73.0495 62.9851 72.8515 62.9851 72.6358C62.9851 72.4675 63.0606 72.2974 63.2029 72.144L64.5471 70.7049C64.1413 70.6042 63.8162 70.4356 63.5582 70.1931C63.2076 69.8617 63.0298 69.4351 63.0298 68.9252C63.0298 67.4887 63.8278 66.7599 65.401 66.7599H66.9745ZM75.1921 66.76C75.4186 66.76 75.5998 66.8366 75.7455 66.9941C75.8778 67.1374 75.9451 67.3147 75.9451 67.5217C75.9451 67.726 75.8872 67.8941 75.7678 68.0353C75.6369 68.1992 75.4423 68.2836 75.1921 68.2836H74.3626V72.6273C74.3626 72.8861 74.2851 73.0949 74.1325 73.2477C73.9729 73.3958 73.7775 73.4692 73.5471 73.4692C73.3167 73.4692 73.1213 73.3958 72.9658 73.2517C72.8091 73.0949 72.7318 72.8861 72.7318 72.6273V68.2836H71.902C71.6519 68.2836 71.4573 68.1992 71.3239 68.0324C71.2072 67.8941 71.149 67.726 71.149 67.5217C71.149 67.3147 71.2164 67.1374 71.3487 66.9941C71.4944 66.8366 71.6756 66.76 71.902 66.76H75.1921ZM79.582 71.8921C79.8284 71.8921 80.0262 71.9707 80.1706 72.1259C80.2989 72.2774 80.3615 72.4534 80.3615 72.6538C80.3615 72.8578 80.2963 73.0272 80.1622 73.1724C80.0233 73.3326 79.8271 73.4157 79.582 73.4157H77.2752C77.0446 73.4157 76.846 73.3391 76.6845 73.1887C76.5236 73.0388 76.442 72.8407 76.442 72.5998V67.6825C76.442 67.0876 76.7411 66.7599 77.2841 66.7599H79.5012C79.7485 66.7599 79.9468 66.8388 80.0904 66.994C80.2182 67.1447 80.281 67.3206 80.281 67.5218C80.281 67.7246 80.2158 67.8942 80.0819 68.0399C79.9428 68.2004 79.7464 68.2835 79.5012 68.2835H78.0726V69.2992H79.3942C79.643 69.2992 79.8497 69.3799 79.992 69.5327C80.1245 69.6771 80.1916 69.8544 80.1916 70.0608C80.1916 70.2647 80.1261 70.434 79.9923 70.5795C79.8413 70.741 79.6404 70.8227 79.3942 70.8227H78.0726V71.8921H79.582ZM86.2952 72.1561C86.353 72.2369 86.3927 72.31 86.4219 72.3886C86.4593 72.5122 86.4758 72.6106 86.4758 72.6987C86.4758 72.9272 86.3972 73.1161 86.2418 73.2602C86.0795 73.4017 85.8872 73.469 85.6516 73.469C85.381 73.469 85.149 73.3462 84.9802 73.1145L83.631 71.2385L82.2818 73.114C82.1129 73.3462 81.8807 73.469 81.6103 73.469C81.3729 73.469 81.1774 73.3988 81.0288 73.2599C80.8689 73.1219 80.7858 72.9317 80.7858 72.6987C80.7858 72.5988 80.8082 72.4904 80.85 72.3855C80.875 72.3189 80.9076 72.2387 80.9647 72.1585L82.6731 69.8636L81.2879 67.9831C81.1751 67.8395 81.1167 67.6772 81.1167 67.5039C81.1167 67.2583 81.1998 67.0621 81.3634 66.9203C81.5154 66.7794 81.7111 66.706 81.9409 66.706C82.2242 66.706 82.4664 66.8425 82.6418 67.1002L83.631 68.5041L84.6212 67.0986C84.7953 66.8425 85.0378 66.706 85.3207 66.706C85.5511 66.706 85.7465 66.7794 85.902 66.9235C86.0619 67.0621 86.1452 67.2583 86.1452 67.5039C86.1452 67.6772 86.0866 67.8395 85.9711 67.9865L84.5888 69.8636L86.2952 72.1561ZM92.0113 66.7061C92.2414 66.7061 92.4368 66.7792 92.5923 66.9236C92.749 67.0801 92.8266 67.2892 92.8266 67.5485V72.6273C92.8266 72.8863 92.749 73.0952 92.5962 73.2477C92.4368 73.396 92.2414 73.4691 92.0113 73.4691C91.7809 73.4691 91.5855 73.396 91.4301 73.2516C91.2733 73.0952 91.1957 72.8863 91.1957 72.6273V70.8226H88.6778V72.6273C88.6778 72.8863 88.6002 73.0952 88.4474 73.2477C88.2883 73.396 88.0929 73.4691 87.8625 73.4691C87.6324 73.4691 87.4367 73.396 87.2815 73.2516C87.1248 73.0952 87.0472 72.8863 87.0472 72.6273V67.5485C87.0472 67.2892 87.1248 67.0801 87.2776 66.9275C87.4367 66.7792 87.6324 66.7061 87.8625 66.7061C88.0929 66.7061 88.2883 66.7792 88.4437 66.9236C88.6002 67.0801 88.6778 67.2892 88.6778 67.5485V69.299H91.1957V67.5485C91.1957 67.2892 91.2733 67.0801 91.4261 66.9275C91.5855 66.7792 91.7809 66.7061 92.0113 66.7061ZM98.8025 66.7061C99.0327 66.7061 99.2281 66.7792 99.3835 66.9236C99.5403 67.0801 99.6178 67.2892 99.6178 67.5485V72.6273C99.6178 72.8863 99.5403 73.0952 99.3875 73.2477C99.2281 73.396 99.0327 73.4691 98.8025 73.4691C98.5722 73.4691 98.3767 73.396 98.2213 73.2516C98.0646 73.0952 97.987 72.8863 97.987 72.6273V69.6919L95.3315 73.118C95.1516 73.351 94.9236 73.4691 94.6537 73.4691C94.4236 73.4691 94.2279 73.396 94.0727 73.2516C93.916 73.0952 93.8384 72.8863 93.8384 72.6273V67.5485C93.8384 67.2892 93.916 67.0801 94.0688 66.9275C94.2279 66.7792 94.4236 66.7061 94.6537 66.7061C94.8841 66.7061 95.0795 66.7792 95.2349 66.9236C95.3914 67.0801 95.469 67.2892 95.469 67.5485V70.5246L98.1243 67.0577C98.3049 66.8242 98.5332 66.7061 98.8025 66.7061ZM103.571 69.876L105.538 71.9276C105.813 72.2132 105.953 72.4757 105.953 72.7074C105.953 72.9462 105.863 73.1403 105.685 73.2847C105.529 73.4075 105.337 73.4691 105.111 73.4691C104.879 73.4691 104.615 73.312 104.326 73.003L102.261 70.7699V72.6806C102.261 72.8983 102.183 73.0864 102.03 73.2389C101.878 73.3917 101.681 73.4691 101.445 73.4691C101.215 73.4691 101.02 73.3959 100.864 73.2516C100.709 73.1077 100.63 72.9157 100.63 72.6806V67.5126C100.63 67.2888 100.707 67.0979 100.86 66.9453C101.007 66.7878 101.205 66.706 101.445 66.706C101.676 66.706 101.871 66.7794 102.026 66.9235C102.182 67.0674 102.261 67.2654 102.261 67.5126V69.0783L104.21 67.0019C104.271 66.9327 104.346 66.8699 104.444 66.8088C104.773 66.6274 105.132 66.6852 105.388 66.9235C105.556 67.08 105.641 67.2723 105.641 67.4945C105.641 67.7243 105.488 67.9845 105.16 68.3124L103.571 69.876ZM109.938 70.6403L109.295 68.6341L108.638 70.6403H109.938ZM112.207 72.6068C112.215 72.6565 112.222 72.6988 112.222 72.7341C112.222 72.9458 112.143 73.1257 111.987 73.2695C111.844 73.4018 111.667 73.4691 111.46 73.4691C111.059 73.4691 110.786 73.2732 110.669 72.9029L110.433 72.1639H108.158L107.923 72.895C107.805 73.27 107.534 73.4691 107.141 73.4691C106.934 73.4691 106.746 73.3968 106.582 73.2548C106.42 73.1151 106.335 72.9229 106.335 72.6985C106.335 72.622 106.346 72.5455 106.367 72.4708L106.412 72.3401L108.203 67.4893C108.416 66.9336 108.783 66.6527 109.296 66.6527C109.822 66.6527 110.2 66.9428 110.39 67.4919L112.141 72.3543C112.168 72.4158 112.191 72.4984 112.202 72.5794L112.207 72.6068Z" fill="#FC8507"/>
</g>
<defs>
<clipPath id="clip0">
<rect width="86.82" height="44.5231" fill="white" transform="translate(26 29)"/>
</clipPath>
</defs>
</svg>
