<svg width="103" height="62" viewBox="0 0 103 62" fill="none" xmlns="http://www.w3.org/2000/svg">
<rect x="0.96875" y="0.832031" width="102.032" height="60.2644" rx="4" fill="white"/>
<g clip-path="url(#clip0)">
<path fill-rule="evenodd" clip-rule="evenodd" d="M36.2409 23.7921C36.2409 22.6124 35.7815 21.5033 34.9474 20.669C34.1131 19.8349 33.004 19.3755 31.8245 19.3755H22.3755V23.7921V28.2087H31.8245C33.004 28.2087 34.1131 27.7493 34.9474 26.9151C35.7815 26.081 36.2409 24.9718 36.2409 23.7921ZM40.6166 23.7921C40.6166 28.6479 36.6803 32.5843 31.8245 32.5843H21.5746H19.6023H18V23.7921V15H31.8245C36.6803 15 40.6166 18.9363 40.6166 23.7921ZM86.3401 23.2179C86.8425 23.7205 87.2374 24.3064 87.5138 24.9594C87.8001 25.6364 87.9452 26.3544 87.9452 27.0934C87.9452 27.8321 87.8001 28.5503 87.5138 29.2274C87.2374 29.8803 86.8425 30.4662 86.3401 30.9688C85.8375 31.4715 85.2514 31.8663 84.5984 32.1425C83.9214 32.4288 83.2034 32.5742 82.4644 32.5742H67.5267C66.3242 32.5742 65.3492 31.599 65.3492 30.3965C65.3492 29.194 66.3242 28.2191 67.5267 28.2191H82.4644C83.0853 28.2191 83.5901 27.7141 83.5901 27.0934C83.5901 26.4726 83.0853 25.9676 82.4644 25.9676V25.9747H70.8315C70.0923 25.9747 69.3742 25.8296 68.6969 25.5431C68.0437 25.2667 67.4578 24.8718 66.955 24.369C66.4521 23.8663 66.0573 23.2803 65.7809 22.6271C65.4944 21.9498 65.3492 21.2316 65.3492 20.4924C65.3492 19.7534 65.4944 19.0351 65.7809 18.3578C66.0573 17.7048 66.4521 17.1187 66.955 16.6159C67.4578 16.113 68.0437 15.7181 68.6969 15.442C69.3742 15.1555 70.0923 15.0101 70.8315 15.0101H84.6197C85.8222 15.0101 86.7974 15.9851 86.7974 17.1878C86.7974 18.3903 85.8222 19.3652 84.6197 19.3652H70.8315C70.2098 19.3652 69.7043 19.8709 69.7043 20.4924C69.7043 21.114 70.2098 21.6196 70.8315 21.6196H82.4644V21.6125C83.2034 21.6125 83.9214 21.7577 84.5984 22.0442C85.2514 22.3204 85.8375 22.7152 86.3401 23.2179ZM59.8949 15H64.2502V30.3965C64.2502 31.2773 63.7196 32.0713 62.906 32.4083C62.6367 32.52 62.3534 32.5742 62.073 32.5742C61.5064 32.5742 60.9494 32.3529 60.5328 31.9362L46.0091 21.4383V32.5843H41.6542V17.1878C41.6542 16.307 42.1848 15.513 42.9984 15.1759C43.8121 14.8389 44.7487 15.0252 45.3714 15.648L59.8949 26.1459V15ZM32.8244 43.3646H29.3675C29.1776 43.3646 29.0146 43.302 28.8961 43.1837C28.7647 43.0523 28.7006 42.886 28.7006 42.6757V38.5664C28.7006 38.3541 28.764 38.1834 28.889 38.0586C29.0189 37.9377 29.1789 37.8777 29.3675 37.8777C29.5559 37.8777 29.7159 37.9377 29.8428 38.0556C29.9706 38.1834 30.034 38.3541 30.034 38.5664V42.1625H32.0934V38.5664C32.0934 38.3541 32.1568 38.1834 32.2818 38.0586C32.4115 37.9377 32.5715 37.8777 32.7599 37.8777C32.9485 37.8777 33.1086 37.9377 33.2355 38.0556C33.3634 38.1834 33.4269 38.3541 33.4269 38.5664V42.1625H33.4914C33.6811 42.1625 33.8441 42.2249 33.9624 42.3434C34.094 42.4748 34.1581 42.641 34.1581 42.8512V43.8603C34.1581 44.0724 34.0947 44.2432 33.9697 44.3679C33.8396 44.4892 33.6798 44.5492 33.4914 44.5492C33.3028 44.5492 33.1425 44.4892 33.0159 44.3707C32.8879 44.2436 32.8244 44.0726 32.8244 43.8603V43.3646ZM39.323 42.7195C39.323 42.9316 39.2595 43.1024 39.1346 43.2271C39.0044 43.3484 38.8444 43.4082 38.656 43.4082C38.4678 43.4082 38.308 43.3484 38.1809 43.2304C38.0529 43.1024 37.9895 42.9316 37.9895 42.7195V40.3191L35.8176 43.1211C35.6707 43.3117 35.484 43.4082 35.2636 43.4082C35.0752 43.4082 34.9154 43.3484 34.7883 43.2304C34.6601 43.1024 34.5966 42.9316 34.5966 42.7195V38.5664C34.5966 38.3541 34.6601 38.1831 34.785 38.0586C34.915 37.9377 35.075 37.8777 35.2636 37.8777C35.452 37.8777 35.612 37.9377 35.7389 38.0556C35.8669 38.1834 35.9303 38.3541 35.9303 38.5664V41.0002L38.1015 38.1653C38.2493 37.9745 38.4358 37.8777 38.656 37.8777C38.8446 37.8777 39.0049 37.9377 39.1315 38.0556C39.2595 38.1831 39.323 38.3541 39.323 38.5664V42.7195ZM42.2666 39.7385L42.2346 39.7277C42.1778 39.7206 42.1402 39.7159 42.1073 39.7159C41.8662 39.7159 41.6633 39.7981 41.4874 39.9675C41.3106 40.1446 41.2239 40.3588 41.2239 40.621C41.2239 40.8861 41.3126 41.1057 41.4874 41.2741C41.6586 41.4389 41.8612 41.5189 42.1073 41.5189C42.1428 41.5189 42.1963 41.5092 42.2666 41.4903V39.7385ZM43.5808 41.4998C43.6309 41.514 43.6638 41.5189 43.7012 41.5189C43.947 41.5189 44.1499 41.4389 44.3211 41.2741C44.4959 41.1055 44.5845 40.8859 44.5845 40.621C44.5845 40.3588 44.4978 40.1448 44.3195 39.9663C44.1449 39.7981 43.9423 39.7159 43.7012 39.7159C43.6625 39.7159 43.6171 39.7226 43.5717 39.729L43.542 39.7389V41.4916L43.5808 41.4998ZM43.5709 42.7225C43.5704 42.933 43.5074 43.1027 43.3829 43.2273C43.2523 43.3483 43.0923 43.4081 42.9043 43.4081C42.7159 43.4081 42.5561 43.3483 42.429 43.2303C42.3015 43.1027 42.238 42.933 42.2376 42.7225C42.1982 42.7291 42.155 42.7356 42.1086 42.7418C41.9965 42.7567 41.9027 42.7646 41.8367 42.7646C41.268 42.7646 40.7882 42.5496 40.4101 42.1256C40.0367 41.7215 39.8464 41.2146 39.8464 40.621C39.8464 40.0288 40.0311 39.52 40.3955 39.1092C40.7736 38.685 41.2586 38.47 41.8367 38.47C41.9008 38.47 41.9918 38.4775 42.1146 38.4928C42.1595 38.496 42.2013 38.5007 42.2393 38.5059C42.2505 38.3218 42.3131 38.1714 42.4258 38.0585C42.5557 37.9377 42.7157 37.8779 42.9043 37.8779C43.0927 37.8779 43.2525 37.9377 43.3797 38.0555C43.4954 38.171 43.5582 38.3218 43.5694 38.5059C43.6083 38.5005 43.6522 38.4958 43.7001 38.4923C43.8167 38.4775 43.9077 38.47 43.9718 38.47C44.5501 38.47 45.0351 38.685 45.413 39.109C45.7771 39.52 45.9621 40.0286 45.9621 40.621C45.9621 41.2118 45.7745 41.7183 45.405 42.1265C45.0276 42.5496 44.5452 42.7646 43.9718 42.7646C43.9057 42.7646 43.812 42.7567 43.7001 42.7418C43.6535 42.7356 43.6104 42.7291 43.5709 42.7225ZM47.8263 40.4369H48.4537C48.6494 40.4369 48.7999 40.3754 48.9144 40.2491C49.0329 40.1304 49.0884 39.9783 49.0884 39.78C49.0884 39.5828 49.032 39.4279 48.9163 39.306C48.7995 39.1832 48.6483 39.1236 48.4537 39.1236H47.8263V40.4369ZM47.1596 43.4082C46.9711 43.4082 46.8113 43.3484 46.6842 43.2303C46.5563 43.1025 46.4928 42.9318 46.4928 42.7195V38.6102C46.4928 38.1663 46.7376 37.9218 47.1815 37.9218H48.4758C49.0449 37.9218 49.522 38.0945 49.8936 38.4351C50.2786 38.7889 50.4659 39.2314 50.4659 39.7873C50.4659 40.3392 50.2706 40.7943 49.8857 41.1404C49.5192 41.4755 49.0722 41.6387 48.5197 41.6387H47.8263V42.7195C47.8263 42.9318 47.7628 43.1025 47.6379 43.2273C47.5078 43.3484 47.3477 43.4082 47.1596 43.4082ZM52.4948 39.5438C52.2825 39.8316 52.1747 40.2015 52.1747 40.6428C52.1747 41.0958 52.2799 41.4681 52.4879 41.7501C52.7148 42.0572 53.0232 42.2065 53.4308 42.2065C53.8381 42.2065 54.1468 42.0572 54.3739 41.7499C54.5817 41.4681 54.6868 41.0958 54.6868 40.6428C54.6868 40.2015 54.5791 39.8316 54.3666 39.5434C54.1341 39.2315 53.8278 39.0797 53.4308 39.0797C53.0335 39.0797 52.7273 39.2315 52.4948 39.5438ZM56.0646 40.6428C56.0646 41.432 55.8205 42.1032 55.3396 42.6379C54.8443 43.1784 54.2023 43.4524 53.4308 43.4524C52.664 43.4524 52.0246 43.1784 51.5301 42.6388C51.0438 42.1067 50.7969 41.4352 50.7969 40.6428C50.7969 39.8432 51.0438 39.1715 51.5308 38.6469C52.0242 38.1075 52.6636 37.8339 53.4308 37.8339C54.1911 37.8339 54.8283 38.1127 55.3245 38.6626C55.8222 39.2061 56.0646 39.8539 56.0646 40.6428ZM57.9914 39.9836H58.4435C58.5936 39.9836 58.705 39.9449 58.7941 39.8619C58.8782 39.7832 58.9173 39.6758 58.9173 39.524C58.9173 39.3939 58.8767 39.3027 58.7853 39.2283C58.6973 39.1579 58.5852 39.1235 58.4435 39.1235H57.9914V39.9836ZM59.3047 41.6447C59.3047 41.4309 59.2303 41.1855 58.6483 41.1855H57.9914V42.1626H58.7358C58.907 42.1626 59.0419 42.1172 59.1475 42.0238C59.2526 41.9359 59.3047 41.809 59.3047 41.6447ZM60.6822 41.6593C60.6822 42.2017 60.5113 42.6273 60.174 42.9252C59.8516 43.2162 59.4118 43.3646 58.8674 43.3646H57.3612C57.1675 43.3646 57.0012 43.3055 56.8668 43.1893C56.7291 43.0607 56.6579 42.8891 56.6579 42.6901V38.5882C56.6579 38.3819 56.7246 38.215 56.8565 38.0924C56.9881 37.978 57.1543 37.9217 57.3539 37.9217H58.7577C59.1789 37.9217 59.5329 38.0501 59.8101 38.3034C60.102 38.5639 60.2508 38.9084 60.2508 39.3266C60.2508 39.7784 60.0822 40.1269 59.749 40.3656C59.9708 40.4426 60.1654 40.5721 60.3297 40.7536C60.5635 41.0115 60.6822 41.3162 60.6822 41.6593ZM62.8065 41.0949H63.8698L63.3438 39.4541L62.8065 41.0949ZM61.5829 43.4083C61.4132 43.4083 61.2595 43.3491 61.1252 43.233C60.9932 43.119 60.9233 42.9618 60.9233 42.7779C60.9233 42.7155 60.9323 42.6529 60.9497 42.5919L60.9869 42.4837L62.4516 38.5181C62.625 38.0636 62.9257 37.8339 63.3451 37.8339C63.775 37.8339 64.0841 38.0714 64.2391 38.5204L65.6718 42.4966C65.6935 42.5469 65.7122 42.6144 65.7217 42.6807L65.7251 42.7024C65.7322 42.7431 65.7374 42.7781 65.7374 42.8071C65.7374 42.9803 65.6728 43.1274 65.5457 43.245C65.4287 43.3532 65.2838 43.4083 65.1143 43.4083C64.7865 43.4083 64.563 43.2481 64.4678 42.9452L64.2746 42.3406H62.4148L62.2217 42.9388C62.1254 43.2455 61.9045 43.4083 61.5829 43.4083ZM67.6697 39.3058C67.5701 39.3936 67.5198 39.5239 67.5198 39.6923C67.5198 39.8549 67.571 39.9859 67.6725 40.0814C67.7748 40.178 67.9086 40.2246 68.0813 40.2246H68.716V39.1673H68.0813C67.9099 39.1673 67.7753 39.2125 67.6697 39.3058ZM66.1056 42.7266C66.1056 42.589 66.1674 42.4498 66.2837 42.3244L67.383 41.1475C67.0513 41.0654 66.7855 40.9275 66.5743 40.7292C66.2876 40.4582 66.1422 40.1094 66.1422 39.6923C66.1422 38.5173 66.7947 37.9216 68.0813 37.9216H69.3681C69.8075 37.9216 70.0495 38.1663 70.0495 38.6103V42.7195C70.0495 42.9316 69.9863 43.1024 69.8611 43.2271C69.731 43.3484 69.5712 43.4082 69.3828 43.4082C69.1946 43.4082 69.0348 43.3484 68.9077 43.2303C68.7795 43.1024 68.716 42.9316 68.716 42.7195V41.4443L67.2881 43.1753C67.2163 43.2671 67.1124 43.3213 67.0408 43.3538C66.7511 43.4689 66.4859 43.4028 66.2912 43.1951C66.1697 43.0652 66.1056 42.9032 66.1056 42.7266ZM74.4198 43.1211C74.2727 43.3117 74.0862 43.4083 73.8658 43.4083C73.6774 43.4083 73.5176 43.3485 73.3904 43.2304C73.2623 43.1024 73.1988 42.9317 73.1988 42.7196V38.5665C73.1988 38.354 73.2623 38.1832 73.3872 38.0584C73.5171 37.9376 73.6771 37.8778 73.8658 37.8778C74.0542 37.8778 74.2142 37.9376 74.3411 38.0556C74.4691 38.1834 74.5323 38.354 74.5323 38.5665V41.0003L76.7037 38.1653C76.8515 37.9743 77.0379 37.8778 77.2582 37.8778C77.4468 37.8778 77.6068 37.9376 77.7337 38.0556C77.8617 38.1832 77.9251 38.354 77.9251 38.5665V42.7196C77.9251 42.9317 77.8617 43.1024 77.7367 43.2272C77.6064 43.3485 77.4466 43.4083 77.2582 43.4083C77.07 43.4083 76.9102 43.3485 76.7831 43.2304C76.6551 43.1024 76.5917 42.9317 76.5917 42.7196V40.3191L74.4198 43.1211ZM21.0767 49.6026C21.0767 49.3889 21.0021 49.1435 20.4201 49.1435H19.7634V50.1201H20.5076C20.679 50.1201 20.8137 50.0749 20.9195 49.9818C21.0247 49.8939 21.0767 49.7672 21.0767 49.6026ZM21.8886 48.3313C22.2641 48.6268 22.4541 49.0594 22.4541 49.6173C22.4541 50.1597 22.2831 50.5853 21.946 50.883C21.6234 51.1744 21.1836 51.3224 20.6394 51.3224H19.1333C18.9393 51.3224 18.773 51.2635 18.6388 51.1473C18.5009 51.0185 18.4297 50.8469 18.4297 50.6481V46.5462C18.4297 46.3399 18.4966 46.1732 18.628 46.05C18.7601 45.936 18.9264 45.8794 19.126 45.8794H21.3049C21.5066 45.8794 21.6686 45.944 21.7865 46.0709C21.891 46.1941 21.9424 46.338 21.9424 46.5025C21.9424 46.6686 21.889 46.8073 21.7796 46.9264C21.6656 47.0574 21.5051 47.1254 21.3049 47.1254H19.7634V47.9412H20.5076C21.0868 47.9412 21.5514 48.0726 21.8886 48.3313ZM27.9209 45.8354C28.1089 45.8354 28.2689 45.8952 28.3963 46.0133C28.5245 46.1415 28.5879 46.3125 28.5879 46.5243V50.6777C28.5879 50.8893 28.5245 51.0601 28.3997 51.185C28.2689 51.3064 28.1089 51.3661 27.9209 51.3661C27.7325 51.3661 27.5727 51.3064 27.4456 51.1883C27.3174 51.0601 27.254 50.8893 27.254 50.6777V46.5243C27.254 46.3125 27.3174 46.1415 27.4422 46.0165C27.5727 45.8952 27.7325 45.8354 27.9209 45.8354ZM25.5137 49.5661C25.5137 49.4186 25.4634 49.3048 25.3591 49.2181C25.2406 49.1185 25.0767 49.0703 24.8571 49.0703H24.3101V50.1201H24.9448C25.1163 50.1201 25.253 50.0705 25.3513 49.9724C25.4599 49.8694 25.5137 49.7334 25.5137 49.5661ZM26.3286 48.2825C26.7018 48.5843 26.8913 49.0211 26.8913 49.5807C26.8913 50.1219 26.7209 50.5544 26.3856 50.8665C26.0598 51.1689 25.6193 51.3224 25.0767 51.3224H23.6802C23.4862 51.3224 23.3199 51.2635 23.1857 51.1473C23.0479 51.0185 22.9767 50.8469 22.9767 50.6482V46.5243C22.9767 46.3122 23.0401 46.1412 23.1651 46.0165C23.2954 45.8954 23.4552 45.8354 23.6436 45.8354C23.8318 45.8354 23.9916 45.8954 24.1187 46.0132C24.2467 46.1412 24.3101 46.3122 24.3101 46.5243V47.8681H24.9448C25.5258 47.8681 25.9914 48.0076 26.3286 48.2825ZM32.3122 45.8795C32.4974 45.8795 32.6455 45.9421 32.7647 46.071C32.8729 46.1882 32.9279 46.3331 32.9279 46.5024C32.9279 46.6695 32.8806 46.807 32.783 46.9225C32.6759 47.0564 32.5167 47.1255 32.3122 47.1255H31.6338V50.6777C31.6338 50.8893 31.5704 51.0601 31.4456 51.1851C31.3151 51.3062 31.1553 51.3662 30.9669 51.3662C30.7785 51.3662 30.6187 51.3062 30.4916 51.1883C30.3634 51.0601 30.3001 50.8893 30.3001 50.6777V47.1255H29.6216C29.417 47.1255 29.2579 47.0564 29.1488 46.9201C29.0533 46.807 29.0058 46.6695 29.0058 46.5024C29.0058 46.3331 29.0609 46.1882 29.169 46.071C29.2882 45.9421 29.4364 45.8795 29.6216 45.8795H32.3122ZM34.635 47.5017C34.4227 47.7894 34.3149 48.1594 34.3149 48.6007C34.3149 49.0537 34.4201 49.426 34.6281 49.7081C34.855 50.0151 35.1636 50.1643 35.571 50.1643C35.9783 50.1643 36.287 50.0151 36.5141 49.7079C36.7219 49.426 36.827 49.0537 36.827 48.6007C36.827 48.1594 36.7193 47.7894 36.5068 47.5012C36.2743 47.1894 35.9682 47.0377 35.571 47.0377C35.1735 47.0377 34.8675 47.1894 34.635 47.5017ZM35.571 45.7918C36.3315 45.7918 36.9688 46.0708 37.4647 46.6205C37.9624 47.1638 38.2048 47.8116 38.2048 48.6007C38.2048 49.3898 37.9607 50.0611 37.4798 50.596C36.9845 51.1362 36.3425 51.4103 35.571 51.4103C34.8042 51.4103 34.1648 51.1362 33.6706 50.5968C33.1841 50.0643 32.9371 49.3928 32.9371 48.6007C32.9371 47.801 33.1841 47.1296 33.671 46.6048C34.1644 46.0656 34.8038 45.7918 35.571 45.7918ZM40.1316 47.9413H40.5837C40.7338 47.9413 40.8452 47.9028 40.9343 47.82C41.0184 47.7412 41.0575 47.6339 41.0575 47.4821C41.0575 47.3519 41.0169 47.2605 40.9255 47.1861C40.8373 47.1158 40.7252 47.0814 40.5837 47.0814H40.1316V47.9413ZM41.4449 49.6027C41.4449 49.3887 41.3705 49.1435 40.7885 49.1435H40.1316V50.1202H40.876C41.0474 50.1202 41.182 50.075 41.2876 49.9817C41.3928 49.8939 41.4449 49.767 41.4449 49.6027ZM41.8892 48.3237C42.111 48.4004 42.3056 48.5301 42.4699 48.7114C42.7037 48.9695 42.8224 49.2743 42.8224 49.6174C42.8224 50.1596 42.6515 50.5854 42.3142 50.8831C41.9916 51.1743 41.552 51.3225 41.0076 51.3225H39.5014C39.3076 51.3225 39.1414 51.2633 39.007 51.1472C38.8693 51.0186 38.7981 50.8469 38.7981 50.6482V46.5463C38.7981 46.34 38.8648 46.1731 38.9964 46.0501C39.1285 45.9361 39.2945 45.8795 39.4941 45.8795H40.8979C41.319 45.8795 41.6731 46.0081 41.9503 46.2613C42.2422 46.5215 42.391 46.8663 42.391 47.2846C42.391 47.7365 42.2224 48.0847 41.8892 48.3237ZM46.0101 49.0528L45.484 47.4122L44.9468 49.0528H46.0101ZM47.8617 50.6385L47.8656 50.6609C47.8722 50.7016 47.8776 50.7362 47.8776 50.765C47.8776 50.9381 47.8131 51.0853 47.686 51.2029C47.569 51.3111 47.4238 51.3661 47.2545 51.3661C46.9268 51.3661 46.7033 51.2059 46.6078 50.9031L46.4149 50.2987H44.5549L44.362 50.8966C44.2656 51.2033 44.0445 51.3661 43.723 51.3661C43.5535 51.3661 43.3995 51.307 43.2653 51.1909C43.1334 51.0769 43.0635 50.9196 43.0635 50.736C43.0635 50.6734 43.0726 50.6108 43.09 50.5497L43.1272 50.4415L44.5917 46.4759C44.7652 46.0215 45.0657 45.7918 45.4853 45.7918C45.915 45.7918 46.2241 46.029 46.3794 46.4781L47.812 50.4544C47.8337 50.5048 47.8522 50.5723 47.8617 50.6385ZM49.8099 47.2639C49.7103 47.3516 49.66 47.4818 49.66 47.6502C49.66 47.8128 49.7114 47.9437 49.8129 48.0395C49.915 48.1358 50.0488 48.1825 50.2215 48.1825H50.8562V47.1254H50.2215C50.0501 47.1254 49.9155 47.1705 49.8099 47.2639ZM51.5083 45.8794C51.9477 45.8794 52.1897 46.124 52.1897 46.5681V50.6776C52.1897 50.8894 52.1265 51.0602 52.0013 51.185C51.8712 51.3063 51.7114 51.3661 51.523 51.3661C51.3348 51.3661 51.175 51.3063 51.0478 51.1882C50.9197 51.0602 50.8562 50.8894 50.8562 50.6776V49.4022L49.4283 51.1331C49.3565 51.225 49.2526 51.2792 49.181 51.3116C48.8913 51.4267 48.6261 51.3605 48.4314 51.1529C48.3099 51.023 48.2458 50.8611 48.2458 50.6847C48.2458 50.547 48.3075 50.4079 48.4239 50.2825L49.5232 49.1056C49.1913 49.0232 48.9255 48.8854 48.7145 48.6871C48.4278 48.4161 48.2824 48.0672 48.2824 47.6502C48.2824 46.4754 48.9349 45.8794 50.2215 45.8794H51.5083ZM58.2285 45.8795C58.4137 45.8795 58.5619 45.9421 58.6811 46.071C58.7892 46.1882 58.8443 46.3331 58.8443 46.5024C58.8443 46.6695 58.797 46.807 58.6993 46.9225C58.5922 47.0564 58.4331 47.1255 58.2285 47.1255H57.5502V50.6777C57.5502 50.8893 57.4867 51.0601 57.362 51.1851C57.2314 51.3062 57.0716 51.3662 56.8832 51.3662C56.6948 51.3662 56.535 51.3062 56.4079 51.1883C56.2797 51.0601 56.2165 50.8893 56.2165 50.6777V47.1255H55.5379C55.3334 47.1255 55.1742 47.0564 55.0652 46.9201C54.9697 46.807 54.9222 46.6695 54.9222 46.5024C54.9222 46.3331 54.9772 46.1882 55.0854 46.071C55.2046 45.9421 55.3527 45.8795 55.5379 45.8795H58.2285ZM61.8185 50.0765C62.02 50.0765 62.1817 50.1408 62.2998 50.2677C62.4048 50.3916 62.456 50.5355 62.456 50.6993C62.456 50.8662 62.4026 51.0047 62.2929 51.1235C62.1794 51.2545 62.0189 51.3224 61.8185 51.3224H59.932C59.7434 51.3224 59.581 51.2598 59.449 51.1368C59.3173 51.0142 59.2507 50.8523 59.2507 50.6552V46.634C59.2507 46.1474 59.4952 45.8795 59.9394 45.8795H61.7525C61.9546 45.8795 62.1168 45.944 62.2342 46.0709C62.3388 46.1941 62.3902 46.338 62.3902 46.5025C62.3902 46.6684 62.3368 46.8071 62.2273 46.9262C62.1136 47.0574 61.9529 47.1254 61.7525 47.1254H60.5842V47.956H61.6649C61.8684 47.956 62.0374 48.0221 62.1538 48.147C62.2622 48.2651 62.317 48.4101 62.317 48.5789C62.317 48.7456 62.2635 48.8841 62.154 49.003C62.0305 49.1351 61.8662 49.202 61.6649 49.202H60.5842V50.0765H61.8185ZM67.3084 50.2924C67.3557 50.3584 67.3882 50.4182 67.4121 50.4825C67.4426 50.5836 67.4562 50.664 67.4562 50.7361C67.4562 50.923 67.3919 51.0774 67.2647 51.1953C67.132 51.311 66.9748 51.3661 66.7821 51.3661C66.5608 51.3661 66.3711 51.2656 66.233 51.0761L65.1297 49.542L64.0263 51.0757C63.8883 51.2656 63.6983 51.3661 63.4772 51.3661C63.283 51.3661 63.1232 51.3086 63.0017 51.1951C62.8709 51.0822 62.803 50.9267 62.803 50.7361C62.803 50.6544 62.8213 50.5658 62.8555 50.4799C62.8759 50.4255 62.9026 50.3599 62.9492 50.2943L64.3464 48.4176L63.2136 46.8798C63.1213 46.7623 63.0735 46.6296 63.0735 46.4879C63.0735 46.287 63.1415 46.1266 63.2753 46.0106C63.3996 45.8954 63.5596 45.8353 63.7476 45.8353C63.9792 45.8353 64.1773 45.947 64.3208 46.1577L65.1297 47.3058L65.9394 46.1565C66.0818 45.947 66.2801 45.8353 66.5115 45.8353C66.7 45.8353 66.8598 45.8954 66.9869 46.0132C67.1176 46.1266 67.1858 46.287 67.1858 46.4879C67.1858 46.6296 67.1379 46.7623 67.0434 46.8826L65.913 48.4176L67.3084 50.2924ZM71.983 45.8354C72.1712 45.8354 72.331 45.8952 72.4581 46.0133C72.5863 46.1413 72.6497 46.3123 72.6497 46.5243V50.6777C72.6497 50.8895 72.5863 51.0603 72.4613 51.185C72.331 51.3064 72.1712 51.3661 71.983 51.3661C71.7946 51.3661 71.6348 51.3064 71.5077 51.1883C71.3795 51.0603 71.316 50.8895 71.316 50.6777V49.2018H69.2569V50.6777C69.2569 50.8895 69.1934 51.0603 69.0685 51.185C68.9384 51.3064 68.7785 51.3661 68.5901 51.3661C68.4019 51.3661 68.2419 51.3064 68.115 51.1883C67.9868 51.0603 67.9234 50.8895 67.9234 50.6777V46.5243C67.9234 46.3123 67.9868 46.1413 68.1118 46.0165C68.2419 45.8952 68.4019 45.8354 68.5901 45.8354C68.7785 45.8354 68.9383 45.8952 69.0655 46.0133C69.1934 46.1413 69.2569 46.3123 69.2569 46.5243V47.9559H71.316V46.5243C71.316 46.3123 71.3795 46.1413 71.5044 46.0165C71.6348 45.8952 71.7946 45.8354 71.983 45.8354ZM77.5367 45.8354C77.7249 45.8354 77.8847 45.8952 78.0118 46.0133C78.14 46.1413 78.2035 46.3123 78.2035 46.5243V50.6777C78.2035 50.8895 78.14 51.0603 78.0151 51.185C77.8847 51.3064 77.7249 51.3661 77.5367 51.3661C77.3483 51.3661 77.1885 51.3064 77.0614 51.1883C76.9332 51.0603 76.8698 50.8895 76.8698 50.6777V48.2772L74.6982 51.079C74.551 51.2696 74.3646 51.3661 74.1439 51.3661C73.9557 51.3661 73.7957 51.3064 73.6688 51.1883C73.5406 51.0603 73.4772 50.8895 73.4772 50.6777V46.5243C73.4772 46.3123 73.5406 46.1413 73.6656 46.0165C73.7957 45.8952 73.9557 45.8354 74.1439 45.8354C74.3323 45.8354 74.4921 45.8952 74.6192 46.0133C74.7472 46.1413 74.8106 46.3123 74.8106 46.5243V48.9581L76.9821 46.123C77.1298 45.932 77.3165 45.8354 77.5367 45.8354ZM81.4363 48.4277L83.0446 50.1055C83.2698 50.3391 83.3847 50.5537 83.3847 50.7432C83.3847 50.9385 83.3107 51.0972 83.1651 51.2153C83.0378 51.3158 82.8803 51.3661 82.6958 51.3661C82.5061 51.3661 82.2899 51.2377 82.0536 50.985L80.3648 49.1587V50.7213C80.3648 50.8994 80.3013 51.0531 80.1764 51.1779C80.0514 51.3028 79.8905 51.3661 79.698 51.3661C79.5096 51.3661 79.3498 51.3063 79.2227 51.1882C79.0956 51.0706 79.0311 50.9136 79.0311 50.7213V46.495C79.0311 46.312 79.0945 46.1558 79.2195 46.0311C79.3395 45.9023 79.5015 45.8354 79.698 45.8354C79.8862 45.8354 80.046 45.8954 80.1731 46.0132C80.3002 46.1309 80.3648 46.2928 80.3648 46.495V47.7754L81.9587 46.0773C82.0084 46.0208 82.0703 45.9694 82.1506 45.9195C82.419 45.7711 82.7128 45.8184 82.9225 46.0132C83.0595 46.1412 83.1287 46.2984 83.1287 46.4802C83.1287 46.6681 83.0038 46.8809 82.7358 47.1491L81.4363 48.4277ZM86.6431 49.0528L86.117 47.4122L85.5797 49.0528H86.6431ZM88.4986 50.6609C88.5052 50.7016 88.5106 50.7362 88.5106 50.765C88.5106 50.9381 88.4461 51.0853 88.319 51.2029C88.202 51.3111 88.0568 51.3661 87.8875 51.3661C87.5597 51.3661 87.3363 51.2059 87.2408 50.9031L87.0481 50.2987H85.1879L84.995 50.8966C84.8986 51.2033 84.6775 51.3661 84.356 51.3661C84.1865 51.3661 84.0325 51.307 83.8983 51.1909C83.7662 51.0766 83.6965 50.9194 83.6965 50.736C83.6965 50.6734 83.7056 50.6108 83.723 50.5497L83.7596 50.4428L85.2247 46.4759C85.3982 46.0215 85.6987 45.7918 86.1183 45.7918C86.548 45.7918 86.8571 46.029 87.0126 46.4781L88.445 50.4544C88.4667 50.5048 88.4852 50.5723 88.4947 50.6385L88.4986 50.6609Z" fill="#FC8507"/>
</g>
<defs>
<clipPath id="clip0">
<rect width="71" height="36.4103" fill="white" transform="translate(18 15)"/>
</clipPath>
</defs>
</svg>
