<svg width="91" height="62" viewBox="0 0 91 62" fill="none" xmlns="http://www.w3.org/2000/svg">
<rect y="0.832031" width="90.6949" height="60.2644" rx="4" fill="white"/>
<g clip-path="url(#clip0)">
<path d="M69.627 44.123H69.8361V44.734H69.952V44.123H70.1604V44.0234H69.627V44.123Z" fill="#FF0036"/>
<path d="M70.8351 44.0234L70.6324 44.5882L70.4312 44.0234H70.2676V44.7347H70.3728V44.389C70.3728 44.3117 70.37 44.2292 70.3643 44.1415H70.3679L70.5741 44.7347H70.6765L70.8899 44.1422H70.8934C70.8934 44.1541 70.8918 44.1884 70.8885 44.2453C70.8851 44.3022 70.8851 44.3482 70.8885 44.3833V44.7347H71.0001V44.0234H70.8351Z" fill="#FF0036"/>
<path d="M34.1068 23.3965H25.4268V24.8638H29.0335V31.9848H30.5001V24.8638H34.1068V23.3965Z" fill="#FF0036"/>
<path d="M59.0216 31.9839H57.5451C56.8594 31.9832 56.2021 31.7105 55.7173 31.2256C55.2324 30.7408 54.9597 30.0835 54.959 29.3978V23.3828H56.4256V29.3971C56.4258 29.694 56.5438 29.9786 56.7537 30.1885C56.9636 30.3984 57.2482 30.5164 57.5451 30.5166H59.0216V31.9839Z" fill="#FF0036"/>
<path d="M65.1879 31.9839H62.2931C61.6075 31.9832 60.9501 31.7105 60.4653 31.2256C59.9805 30.7408 59.7078 30.0835 59.707 29.3978V23.3828H61.1736V29.3971C61.1738 29.694 61.2918 29.9786 61.5017 30.1885C61.7116 30.3984 61.9963 30.5164 62.2931 30.5166H65.1879V31.9839Z" fill="#FF0036"/>
<path d="M43.7665 31.984H42.2999V25.4782L41.6349 26.018C40.9985 26.5304 40.2061 26.8097 39.3891 26.8097C38.5721 26.8097 37.7797 26.5304 37.1433 26.018L36.4783 25.4789V31.984H35.0117V24.2883C35.0116 24.1182 35.0597 23.9517 35.1505 23.8079C35.2413 23.6641 35.371 23.549 35.5245 23.4759C35.6781 23.4029 35.8492 23.3749 36.018 23.3952C36.1868 23.4154 36.3464 23.4832 36.4783 23.5906L38.0701 24.8786C38.4446 25.1803 38.911 25.3447 39.3919 25.3447C39.8728 25.3447 40.3393 25.1803 40.7138 24.8786L42.3034 23.5891C42.4354 23.4822 42.595 23.4149 42.7637 23.3949C42.9324 23.3749 43.1033 23.4031 43.2566 23.4762C43.4099 23.5492 43.5395 23.6642 43.6302 23.8078C43.7209 23.9514 43.7692 24.1177 43.7693 24.2876L43.7665 31.984Z" fill="#FF0036"/>
<path d="M52.6911 31.9851H54.2864L50.9705 24.3263C50.8435 24.0328 50.6334 23.7827 50.366 23.6071C50.0987 23.4315 49.7858 23.3379 49.4659 23.3379C49.146 23.3379 48.8331 23.4315 48.5658 23.6071C48.2984 23.7827 48.0883 24.0328 47.9613 24.3263L44.6426 31.9851H46.2408L47.4534 29.187H51.4784L52.6911 31.9851ZM48.0893 27.7176L49.3077 24.9089C49.321 24.8779 49.3432 24.8516 49.3714 24.8331C49.3996 24.8145 49.4325 24.8047 49.4663 24.8047C49.5 24.8047 49.533 24.8145 49.5611 24.8331C49.5893 24.8516 49.6115 24.8779 49.6249 24.9089L50.8432 27.7197L48.0893 27.7176Z" fill="#FF0036"/>
<path d="M64.9369 11.4931C65.3581 11.4935 65.7751 11.5773 66.1638 11.7397C66.5525 11.9022 66.9051 12.14 67.2013 12.4396C67.4975 12.7391 67.7314 13.0943 67.8896 13.4848C68.0477 13.8752 68.1269 14.2931 68.1226 14.7144V32.3327C68.1209 33.5307 67.6443 34.6792 66.7973 35.5264C65.9503 36.3737 64.802 36.8506 63.604 36.8527H27.0146C25.8162 36.8512 24.6673 36.3745 23.8199 35.5272C22.9724 34.6799 22.4956 33.5311 22.4939 32.3327V14.7129C22.4863 14.057 22.6812 13.4148 23.052 12.8737C23.4228 12.3326 23.9515 11.9191 24.566 11.6896C25.1805 11.4601 25.8508 11.4257 26.4855 11.5911C27.1202 11.7566 27.6885 12.1138 28.1127 12.614L31.861 17.0679C32.5412 17.877 33.3903 18.5274 34.3488 18.9732C35.3072 19.419 36.3517 19.6494 37.4088 19.6483H53.2077C54.2648 19.6494 55.3092 19.419 56.2677 18.9732C57.2261 18.5274 58.0753 17.877 58.7554 17.0679L62.5073 12.614C62.8067 12.2622 63.1791 11.9797 63.5987 11.7861C64.0182 11.5926 64.4748 11.4926 64.9369 11.4931V11.4931ZM64.9369 9.9995C64.2577 9.99849 63.5864 10.1456 62.9699 10.4306C62.3534 10.7156 61.8064 11.1316 61.3671 11.6496L57.6132 16.1063C57.0724 16.7481 56.398 17.264 55.637 17.618C54.8761 17.9719 54.0469 18.1553 53.2077 18.1554H37.408C36.5688 18.1553 35.7397 17.9719 34.9787 17.618C34.2178 17.264 33.5433 16.7481 33.0026 16.1063L29.2507 11.6496C28.6281 10.9153 27.7941 10.3908 26.8624 10.1477C25.9308 9.90465 24.9469 9.95477 24.0448 10.2913C23.1427 10.6278 22.3664 11.2343 21.8215 12.0281C21.2767 12.8219 20.9899 13.7644 21.0003 14.7272V32.3327C21.0003 33.9276 21.6338 35.4572 22.7616 36.5849C23.8894 37.7127 25.419 38.3463 27.0139 38.3463H63.604C65.1984 38.3455 66.7273 37.7116 67.8544 36.5839C68.9816 35.4562 69.6148 33.9271 69.6148 32.3327V14.7272C69.6209 14.1088 69.5044 13.4954 69.2721 12.9223C69.0398 12.3492 68.6962 11.8278 68.2613 11.3882C67.8264 10.9487 67.3086 10.5996 66.738 10.3612C66.1674 10.1229 65.5553 9.99994 64.9369 9.9995V9.9995Z" fill="#FF0036"/>
<path d="M58.3913 44.6599C58.0697 44.5264 57.7252 44.4568 57.3771 44.4551H57.3629C56.9747 44.458 56.5908 44.5365 56.2327 44.6862C55.7038 44.9098 55.2524 45.2839 54.9346 45.7621C54.6168 46.2402 54.4466 46.8013 54.4453 47.3755V47.3755V47.384C54.4492 48.1694 54.7623 48.9216 55.3167 49.4779C55.8711 50.0342 56.6223 50.3498 57.4077 50.3563H57.4411C57.8633 50.3517 58.2795 50.2562 58.6615 50.0763C59.0434 49.8963 59.3821 49.6362 59.6545 49.3136L58.9169 48.724C58.7376 48.932 58.5179 49.1014 58.2711 49.2219C58.0076 49.3534 57.7172 49.4223 57.4226 49.4232V49.4232C57.1947 49.4228 56.9686 49.3834 56.754 49.3065C56.4433 49.1962 56.1639 49.0124 55.9396 48.7708C55.7154 48.5292 55.5528 48.2369 55.466 47.9189L55.456 47.8826L59.9916 47.8762L59.9959 47.0654C59.9953 46.55 59.8429 46.0463 59.5578 45.617C59.2727 45.1877 58.8675 44.8518 58.3927 44.6514L58.3913 44.6599ZM55.4382 46.958L55.4468 46.9217C55.5225 46.6066 55.6755 46.3154 55.8919 46.0743C56.1083 45.8331 56.3814 45.6497 56.6865 45.5404C56.8965 45.4657 57.1178 45.4272 57.3408 45.4266C57.753 45.4262 58.1507 45.5787 58.457 45.8546C58.7633 46.1305 58.9563 46.5102 58.9987 46.9203V46.953L55.4382 46.958Z" fill="#FF0036"/>
<path d="M29.5519 42.4635L28.5576 42.4648L28.5685 50.2381L29.5628 50.2367L29.5519 42.4635Z" fill="#FF0036"/>
<path d="M47.6137 44.4675C46.8344 44.4679 46.0868 44.7759 45.5334 45.3247C44.9801 45.8735 44.6659 46.6186 44.6592 47.3978L44.6677 53.1376H45.6635L45.6585 49.4647C46.1684 50.0023 46.8617 50.3288 47.6009 50.3794H47.6208C48.3889 50.3852 49.129 50.0918 49.6845 49.5613C50.2399 49.0308 50.567 48.3049 50.5964 47.5374C50.6258 46.7699 50.3552 46.0211 49.842 45.4496C49.3288 44.8782 48.6132 44.529 47.847 44.476L47.7865 44.4718C47.7289 44.4718 47.6713 44.4668 47.6137 44.4668V44.4675ZM49.5654 47.5031C49.5657 47.7586 49.5158 48.0117 49.4183 48.2479C49.3209 48.4841 49.1779 48.6988 48.9975 48.8797C48.8171 49.0606 48.6028 49.2042 48.3669 49.3024C48.131 49.4005 47.8781 49.4512 47.6226 49.4516C47.3671 49.4519 47.114 49.402 46.8778 49.3045C46.6416 49.2071 46.4269 49.0641 46.246 48.8837C46.0651 48.7033 45.9214 48.489 45.8233 48.2531C45.7252 48.0172 45.6745 47.7643 45.6741 47.5088C45.6741 47.4832 45.6741 47.4576 45.6741 47.4327C45.6741 47.4078 45.6741 47.3822 45.6741 47.3566C45.6734 46.8406 45.8776 46.3454 46.242 45.98C46.6063 45.6146 47.1009 45.4089 47.6169 45.4081C48.1329 45.4074 48.6281 45.6116 48.9935 45.976C49.3589 46.3403 49.5646 46.8349 49.5654 47.3509C49.5654 47.3765 49.5654 47.4021 49.5654 47.427C49.5654 47.4519 49.5654 47.4775 49.5654 47.5031Z" fill="#FF0036"/>
<path d="M34.394 49.2137L34.3912 46.7997L37.5826 46.7955L37.5811 45.8303L34.3898 45.8353L34.3862 43.4725L37.9787 43.4675L37.9773 42.4512L33.3691 42.4583L33.3798 50.2315L38.2682 50.2244L38.2668 49.208L34.394 49.2137Z" fill="#FF0036"/>
<path d="M24.9972 42.4648H23.973L21 50.2487H21.9744L22.6857 48.3803L26.2967 48.3753L27.0164 50.2416H27.9901L24.9972 42.4648ZM23.0768 47.3561L24.4851 43.6676L25.9076 47.3518L23.0768 47.3561Z" fill="#FF0036"/>
<path d="M44.2159 44.6328L43.0388 44.6342L41.4648 46.6826L39.8851 44.6392L38.708 44.6406L40.8638 47.4287L38.7165 50.2232L39.8937 50.2218L41.4669 48.1734L43.0473 50.2168L44.2244 50.2154L42.0686 47.4273L44.2159 44.6328Z" fill="#FF0036"/>
<path d="M64.2367 47.3933C64.0583 47.2603 63.8594 47.1572 63.6478 47.0882C63.4152 47.0105 63.1776 46.9487 62.9366 46.9032C62.7521 46.8715 62.5738 46.8316 62.4017 46.7837C62.2448 46.7417 62.092 46.6858 61.9451 46.6166C61.8275 46.5634 61.7212 46.4881 61.6321 46.3947C61.5562 46.3112 61.5152 46.2017 61.5176 46.0889C61.5157 45.9671 61.5512 45.8477 61.6193 45.7467C61.6869 45.6472 61.7749 45.5633 61.8775 45.5006C61.9878 45.4348 62.1079 45.3868 62.2331 45.3584C62.3609 45.3268 62.492 45.3106 62.6236 45.31H62.6947C62.9265 45.3179 63.1532 45.3793 63.3573 45.4893C63.5614 45.5994 63.7373 45.7552 63.8712 45.9445L64.613 45.443C64.3969 45.1345 64.1094 44.8828 63.775 44.7095C63.4406 44.5361 63.0693 44.4461 62.6926 44.4473C62.4279 44.4462 62.1644 44.4831 61.9102 44.5568C61.6713 44.625 61.4447 44.7307 61.2388 44.8698C61.0416 45.0032 60.8776 45.1801 60.7594 45.3868C60.6367 45.6068 60.5748 45.8555 60.5802 46.1073C60.5698 46.3547 60.6261 46.6004 60.7431 46.8186C60.8497 47.0008 60.9982 47.1549 61.1762 47.2681C61.3721 47.3921 61.5845 47.4879 61.8071 47.5526C62.047 47.6242 62.2993 47.6877 62.5639 47.7432C62.7161 47.775 62.8643 47.8108 63.0084 47.8506C63.1435 47.8866 63.2729 47.9409 63.3932 48.0121C63.4995 48.0746 63.5918 48.1583 63.6642 48.2582C63.7364 48.3684 63.7722 48.4985 63.7666 48.6301C63.7708 48.7681 63.7334 48.9042 63.6592 49.0206C63.5859 49.1311 63.4886 49.2237 63.3747 49.2916C63.2505 49.3655 63.115 49.4184 62.9736 49.4481C62.8413 49.4773 62.7064 49.4935 62.571 49.4964C62.287 49.4967 62.007 49.4297 61.7538 49.301C61.5007 49.1724 61.2815 48.9856 61.1144 48.756L60.3633 49.3421C60.6369 49.6587 60.9754 49.9126 61.3558 50.0868C61.7363 50.2609 62.1497 50.3512 62.5681 50.3514C62.8341 50.3467 63.0988 50.3133 63.3576 50.2518C63.6139 50.1923 63.8578 50.0883 64.0781 49.9445C64.2891 49.8053 64.4639 49.6178 64.5881 49.3976C64.7225 49.1467 64.7885 48.8648 64.7794 48.5804C64.7881 48.3354 64.7394 48.0919 64.6372 47.8691C64.5437 47.6808 64.4078 47.5167 64.2403 47.3897" fill="#FF0036"/>
<path d="M69.4699 47.8648C69.3765 47.6765 69.2406 47.5124 69.073 47.3854C68.8946 47.2524 68.6957 47.1494 68.4841 47.0803C68.2515 47.0026 68.0139 46.9408 67.7729 46.8954C67.5884 46.8636 67.4101 46.8238 67.238 46.7759C67.0811 46.7339 66.9283 46.6779 66.7814 46.6088C66.6638 46.5555 66.5576 46.4802 66.4685 46.3869C66.3925 46.3034 66.3515 46.1939 66.3539 46.081C66.352 45.9592 66.3875 45.8398 66.4556 45.7389C66.5231 45.6392 66.6112 45.555 66.7138 45.4921C66.8242 45.4263 66.9442 45.3783 67.0695 45.3499C67.1972 45.3183 67.3283 45.3021 67.4599 45.3015H67.5311C67.7628 45.3094 67.9896 45.3707 68.1936 45.4808C68.3977 45.5909 68.5736 45.7466 68.7075 45.9359V45.9359L69.4486 45.438C69.2316 45.1308 68.9438 44.8804 68.6095 44.708C68.2752 44.5355 67.9043 44.4461 67.5282 44.4473H67.5154C67.2555 44.4472 66.9968 44.4841 66.7473 44.5568C66.5083 44.6249 66.2817 44.7306 66.0758 44.8698C65.8786 45.0032 65.7146 45.1801 65.5965 45.3868C65.4737 45.6068 65.4118 45.8555 65.4172 46.1073C65.4068 46.3547 65.4631 46.6004 65.5801 46.8186C65.6867 47.0007 65.8352 47.1548 66.0132 47.2681C66.2091 47.3922 66.4215 47.488 66.6441 47.5526C66.8845 47.6242 67.1368 47.688 67.4009 47.7439C67.5531 47.7757 67.7013 47.8115 67.8454 47.8513C67.9802 47.8873 68.1095 47.9416 68.2295 48.0128C68.3358 48.0752 68.4281 48.159 68.5005 48.2589C68.5727 48.3691 68.6085 48.4992 68.6029 48.6308C68.6071 48.7688 68.5697 48.9049 68.4955 49.0213C68.4221 49.1318 68.3249 49.2244 68.211 49.2923C68.0868 49.3662 67.9513 49.419 67.8099 49.4488C67.6776 49.4781 67.5427 49.4943 67.4073 49.4971V49.4971H67.3973C67.1151 49.498 66.8367 49.4322 66.5847 49.3052C66.3327 49.1781 66.1142 48.9934 65.9471 48.766L65.1953 49.3314C65.4689 49.648 65.8074 49.902 66.1879 50.0761C66.5683 50.2502 66.9818 50.3405 67.4002 50.3407C67.6662 50.3384 67.931 50.3059 68.1897 50.244C68.446 50.1845 68.6898 50.0805 68.9102 49.9367C69.1212 49.7975 69.296 49.61 69.4201 49.3897C69.5546 49.1389 69.6205 48.857 69.6115 48.5725C69.6201 48.3276 69.5714 48.084 69.4692 47.8613" fill="#FF0036"/>
<path d="M52.2868 44.6078H51.291L51.2988 47.27C51.2988 47.3127 51.2988 47.3568 51.2988 47.3995L51.3045 50.2032H52.3003L52.296 47.4023C52.2951 46.8829 52.5001 46.3844 52.8663 46.016C53.2324 45.6476 53.7297 45.4394 54.2491 45.4371V44.4414C53.5284 44.4435 52.8333 44.7082 52.2939 45.1861L52.2868 44.6078Z" fill="#FF0036"/>
<path d="M31.9514 44.6842L30.957 44.6855L30.9648 50.2354L31.9591 50.234L31.9514 44.6842Z" fill="#FF0036"/>
<path d="M31.4511 41.3887C31.4454 41.3887 31.4397 41.3898 31.4345 41.392C31.4292 41.3942 31.4244 41.3973 31.4204 41.4014C31.4164 41.4054 31.4132 41.4102 31.411 41.4155C31.4088 41.4207 31.4077 41.4264 31.4077 41.4321C31.409 41.8163 31.2579 42.1853 30.9875 42.4582C30.7171 42.7312 30.3495 42.8857 29.9653 42.888C29.9538 42.888 29.9427 42.8925 29.9346 42.9007C29.9264 42.9088 29.9219 42.9199 29.9219 42.9314C29.9219 42.9429 29.9264 42.9539 29.9346 42.962C29.9427 42.9702 29.9538 42.9747 29.9653 42.9747C30.3491 42.9759 30.7168 43.129 30.988 43.4007C31.2591 43.6724 31.4116 44.0404 31.4119 44.4243C31.4119 44.4358 31.4165 44.4468 31.4246 44.4549C31.4328 44.4631 31.4438 44.4676 31.4553 44.4676C31.4667 44.4675 31.4776 44.4628 31.4855 44.4547C31.4935 44.4466 31.498 44.4356 31.498 44.4243C31.4982 44.041 31.6499 43.6733 31.9202 43.4015C32.1904 43.1297 32.5571 42.9758 32.9404 42.9733C32.9519 42.9733 32.963 42.9687 32.9711 42.9606C32.9792 42.9525 32.9838 42.9414 32.9838 42.9299C32.9838 42.9184 32.9792 42.9074 32.9711 42.8993C32.963 42.8911 32.9519 42.8865 32.9404 42.8865C32.5566 42.8854 32.1888 42.7323 31.9177 42.4606C31.6466 42.1889 31.4941 41.8209 31.4937 41.437V41.4328C31.4937 41.4213 31.4892 41.4102 31.481 41.4021C31.4729 41.394 31.4619 41.3894 31.4503 41.3894" fill="#FF0036"/>
</g>
<defs>
<clipPath id="clip0">
<rect width="50" height="43.1372" fill="white" transform="translate(21 10)"/>
</clipPath>
</defs>
</svg>
