<svg width="204" height="73" viewBox="0 0 204 73" fill="none" xmlns="http://www.w3.org/2000/svg">
<rect width="204" height="73" rx="4" fill="white"/>
<g clip-path="url(#clip0)">
<path fill-rule="evenodd" clip-rule="evenodd" d="M148.874 45.0079H149.551V46.6729H151.428V45.0079H152.105V48.9912H151.428V47.2386H149.551V49.0112H148.874V45.0079ZM146.922 43.5301H147.385C147.381 43.6697 147.348 43.807 147.29 43.9337C147.231 44.0604 147.147 44.1738 147.043 44.267C146.939 44.3602 146.817 44.4312 146.685 44.4758C146.552 44.5203 146.412 44.5373 146.273 44.5259C146.135 44.5379 145.995 44.5215 145.863 44.4777C145.731 44.4339 145.609 44.3636 145.505 44.2711C145.401 44.1787 145.317 44.066 145.258 43.9399C145.199 43.8139 145.166 43.6771 145.162 43.538H145.624C145.639 43.69 145.714 43.8298 145.832 43.9269C145.95 44.0239 146.101 44.0703 146.253 44.0559C146.417 44.0678 146.58 44.0243 146.715 43.9324C146.832 43.8284 146.905 43.6851 146.922 43.5301ZM144.584 45.0119H145.261V48.0631L147.142 45.0119H147.87V48.9952H147.193V45.9758L145.317 49.0072H144.588L144.584 45.0119ZM142.859 47.0036C142.501 47.1309 142.13 47.2164 141.752 47.2585C141.55 47.2799 141.35 47.3253 141.159 47.3939C141.05 47.4389 140.957 47.5151 140.892 47.613C140.815 47.7332 140.784 47.877 140.804 48.0182C140.825 48.1594 140.895 48.2884 141.003 48.3818C141.175 48.5124 141.389 48.5761 141.605 48.561C141.848 48.5658 142.088 48.5067 142.302 48.3898C142.496 48.285 142.652 48.122 142.748 47.9237C142.831 47.7095 142.868 47.48 142.855 47.2505L142.859 47.0036ZM142.899 48.5093C142.685 48.7007 142.44 48.8543 142.174 48.9634C141.935 49.0529 141.681 49.0975 141.425 49.0948C141.059 49.1191 140.698 49.0038 140.414 48.7722C140.298 48.6697 140.206 48.543 140.145 48.4013C140.084 48.2595 140.055 48.106 140.059 47.9516C140.056 47.7641 140.102 47.5789 140.191 47.4138C140.274 47.2547 140.394 47.118 140.541 47.0155C140.69 46.9152 140.854 46.8399 141.027 46.7924C141.225 46.7475 141.426 46.7142 141.629 46.6929C142.034 46.6555 142.434 46.5781 142.824 46.4618C142.824 46.3702 142.824 46.3104 142.824 46.2865C142.835 46.1816 142.823 46.0755 142.79 45.9752C142.758 45.875 142.704 45.7828 142.632 45.705C142.411 45.5374 142.136 45.4566 141.86 45.4779C141.613 45.4594 141.367 45.5178 141.155 45.6452C140.977 45.7987 140.858 46.0081 140.816 46.2387L140.155 46.1471C140.2 45.8975 140.302 45.6617 140.453 45.458C140.612 45.2727 140.819 45.1348 141.051 45.0597C141.343 44.9602 141.65 44.9117 141.959 44.9163C142.242 44.9066 142.523 44.947 142.792 45.0358C142.972 45.0945 143.134 45.1988 143.262 45.3385C143.368 45.4736 143.44 45.632 143.473 45.8006C143.5 46.0065 143.511 46.2143 143.505 46.422V47.3143C143.495 47.7131 143.51 48.1122 143.549 48.5093C143.577 48.6781 143.634 48.8409 143.716 48.9912H143.007C142.945 48.8375 142.909 48.6747 142.899 48.5093V48.5093ZM136.128 45.0119H139.314V48.9952H138.637V45.5735H136.845V47.5652C136.854 47.8726 136.839 48.1803 136.801 48.4854C136.769 48.6434 136.681 48.7848 136.554 48.8837C136.384 49.0055 136.177 49.0646 135.968 49.051C135.809 49.051 135.63 49.051 135.422 49.0231V48.4376H135.717C135.819 48.4441 135.921 48.4292 136.016 48.3937C136.044 48.381 136.07 48.3623 136.09 48.3389C136.111 48.3156 136.126 48.2881 136.136 48.2583C136.164 48.0551 136.173 47.8498 136.163 47.6449L136.128 45.0119ZM131.551 45.0119H132.228V46.6769H134.136V45.0079H134.813V48.9912H134.136V47.2386H132.26V49.0112H131.583L131.551 45.0119ZM127.711 47.0036C127.68 47.4138 127.799 47.8214 128.045 48.1508C128.147 48.2761 128.276 48.377 128.422 48.446C128.568 48.5149 128.728 48.5501 128.89 48.5491C129.051 48.5504 129.21 48.5153 129.356 48.4463C129.501 48.3773 129.629 48.2763 129.73 48.1508C129.979 47.8148 130.098 47.4003 130.065 46.9836C130.093 46.5816 129.973 46.1832 129.726 45.8643C129.621 45.7449 129.492 45.6492 129.347 45.5837C129.202 45.5181 129.045 45.4842 128.886 45.4842C128.727 45.4842 128.57 45.5181 128.425 45.5837C128.28 45.6492 128.15 45.7449 128.045 45.8643C127.807 46.1966 127.696 46.6041 127.735 47.0115L127.711 47.0036ZM127.018 47.0036C126.993 46.7014 127.036 46.3976 127.143 46.1138C127.249 45.8301 127.417 45.5735 127.635 45.3624C127.991 45.0605 128.447 44.904 128.914 44.9242C129.163 44.9157 129.412 44.9595 129.644 45.0528C129.876 45.1461 130.086 45.2868 130.26 45.466C130.441 45.6675 130.58 45.903 130.67 46.1587C130.76 46.4144 130.798 46.6853 130.782 46.9558C130.799 47.3666 130.72 47.7758 130.551 48.1508C130.4 48.4412 130.165 48.6798 129.878 48.8359C129.583 48.9984 129.251 49.0821 128.914 49.0789C128.663 49.0891 128.413 49.0465 128.179 48.9538C127.946 48.8612 127.735 48.7206 127.559 48.5411C127.193 48.1173 127.007 47.5668 127.042 47.0075L127.018 47.0036ZM122.823 44.5259V43.7292H123.532V44.5259H122.823ZM121.425 44.5259V43.7292H122.134V44.5259H121.425ZM121.393 46.6371H123.616C123.609 46.3649 123.52 46.1011 123.361 45.8802C123.262 45.7532 123.135 45.6511 122.99 45.5819C122.845 45.5127 122.685 45.4785 122.524 45.4819C122.377 45.4762 122.231 45.5009 122.094 45.5543C121.957 45.6078 121.832 45.6889 121.728 45.7926C121.514 46.0192 121.393 46.3177 121.389 46.6291L121.393 46.6371ZM123.604 47.7126L124.305 47.8042C124.216 48.1806 124.001 48.5151 123.695 48.7522C123.312 49.004 122.855 49.1207 122.398 49.0839C121.941 49.0471 121.508 48.8589 121.17 48.5491C120.808 48.131 120.625 47.5873 120.66 47.0354C120.625 46.4676 120.811 45.9082 121.178 45.4739C121.349 45.29 121.557 45.1449 121.788 45.0487C122.02 44.9524 122.27 44.9073 122.52 44.9163C122.764 44.9084 123.006 44.953 123.231 45.0472C123.456 45.1414 123.658 45.2828 123.823 45.462C124.182 45.8893 124.363 46.4384 124.329 46.9956C124.329 47.0354 124.329 47.0952 124.329 47.1748H121.357C121.356 47.5444 121.487 47.9021 121.728 48.1826C121.834 48.2965 121.963 48.3866 122.106 48.447C122.25 48.5074 122.405 48.5368 122.56 48.5332C122.787 48.5398 123.01 48.4712 123.194 48.338C123.389 48.1741 123.531 47.9567 123.604 47.7126V47.7126ZM119.644 47.5413L120.306 47.6329C120.256 48.0459 120.058 48.4266 119.748 48.7044C119.444 48.969 119.052 49.111 118.649 49.1028C118.404 49.1129 118.16 49.0701 117.933 48.9773C117.706 48.8845 117.502 48.7439 117.334 48.565C116.977 48.1367 116.799 47.5876 116.836 47.0314C116.828 46.6435 116.902 46.2582 117.051 45.9002C117.18 45.5923 117.409 45.3369 117.701 45.1752C117.991 45.013 118.32 44.9293 118.653 44.9322C119.033 44.9163 119.408 45.0332 119.712 45.2628C119.998 45.499 120.187 45.8323 120.242 46.1989L119.589 46.2985C119.545 46.0659 119.428 45.8536 119.254 45.693C119.093 45.5571 118.887 45.4849 118.676 45.4899C118.519 45.4847 118.363 45.515 118.219 45.5784C118.074 45.6419 117.946 45.7368 117.844 45.8563C117.604 46.1928 117.491 46.6036 117.525 47.0155C117.489 47.4296 117.598 47.8433 117.832 48.1866C117.929 48.3038 118.05 48.3976 118.188 48.461C118.326 48.5245 118.477 48.556 118.629 48.5531C118.874 48.5619 119.112 48.4747 119.294 48.3101C119.5 48.1061 119.624 47.8343 119.644 47.5453V47.5413ZM113.717 48.4495H114.617C114.89 48.4734 115.164 48.4282 115.414 48.3181C115.488 48.2665 115.547 48.197 115.586 48.1161C115.625 48.0352 115.643 47.9457 115.637 47.856C115.636 47.7274 115.593 47.6027 115.514 47.5015C115.435 47.3951 115.32 47.3214 115.191 47.2943C114.98 47.2594 114.767 47.2447 114.554 47.2505H113.757L113.717 48.4495ZM113.717 46.6929H114.434C114.632 46.7008 114.83 46.6861 115.024 46.649C115.135 46.6158 115.234 46.5524 115.311 46.4658C115.395 46.3764 115.44 46.2578 115.438 46.1352C115.447 46.0479 115.43 45.96 115.391 45.8817C115.351 45.8034 115.29 45.738 115.215 45.693C114.974 45.5929 114.714 45.5506 114.454 45.5695H113.713L113.717 46.6929ZM113.024 45.0079H114.582C114.869 44.9956 115.156 45.0278 115.434 45.1035C115.624 45.1706 115.791 45.2926 115.912 45.454C116.047 45.6297 116.117 45.8462 116.111 46.0675C116.115 46.2409 116.074 46.4124 115.992 46.5654C115.908 46.7145 115.785 46.8383 115.637 46.9239C115.826 46.9884 115.989 47.1111 116.103 47.2744C116.228 47.4527 116.292 47.6663 116.286 47.8839C116.288 48.0455 116.253 48.2054 116.184 48.3516C116.115 48.4978 116.014 48.6266 115.888 48.7283C115.571 48.9319 115.197 49.0282 114.821 49.0032H113.024V45.0079ZM108.945 43.5301H109.407C109.403 43.6697 109.371 43.807 109.312 43.9337C109.254 44.0604 109.17 44.1738 109.066 44.267C108.962 44.3602 108.84 44.4312 108.707 44.4758C108.575 44.5203 108.435 44.5373 108.296 44.5259C108.157 44.5385 108.017 44.5225 107.885 44.4789C107.753 44.4353 107.631 44.3651 107.526 44.2725C107.422 44.1799 107.338 44.067 107.279 43.9407C107.221 43.8143 107.188 43.6773 107.184 43.538H107.647C107.662 43.69 107.736 43.8298 107.854 43.9269C107.972 44.0239 108.124 44.0703 108.276 44.0559C108.439 44.0682 108.602 44.0246 108.738 43.9324C108.854 43.8284 108.928 43.6851 108.945 43.5301V43.5301ZM106.607 45.0119H107.284V48.0631L109.164 45.0119H109.889V48.9952H109.212V45.9758L107.336 49.0072H106.607V45.0119ZM104.882 47.0036C104.524 47.1308 104.152 47.2163 103.775 47.2585C103.572 47.2799 103.373 47.3253 103.181 47.3939C103.073 47.4391 102.98 47.5153 102.914 47.613C102.837 47.7332 102.806 47.877 102.827 48.0182C102.847 48.1594 102.918 48.2884 103.026 48.3818C103.198 48.5124 103.412 48.5761 103.627 48.561C103.871 48.5656 104.111 48.5065 104.324 48.3898C104.518 48.2848 104.674 48.1218 104.771 47.9237C104.854 47.7095 104.891 47.48 104.878 47.2505L104.882 47.0036ZM104.938 48.5093C104.724 48.7008 104.479 48.8543 104.213 48.9634C103.975 49.0525 103.722 49.0971 103.468 49.0948C103.102 49.1191 102.741 49.0038 102.456 48.7722C102.341 48.6697 102.249 48.543 102.188 48.4013C102.127 48.2595 102.097 48.106 102.102 47.9516C102.1 47.7637 102.147 47.5786 102.237 47.4138C102.32 47.2547 102.44 47.118 102.588 47.0155C102.736 46.9153 102.901 46.8399 103.074 46.7924C103.272 46.7474 103.473 46.7141 103.675 46.6929C104.08 46.6555 104.48 46.5781 104.87 46.4618C104.87 46.3702 104.87 46.3104 104.87 46.2865C104.881 46.1816 104.87 46.0755 104.837 45.9752C104.804 45.875 104.75 45.7828 104.679 45.705C104.458 45.5374 104.183 45.4566 103.906 45.4779C103.66 45.4594 103.413 45.5178 103.201 45.6452C103.024 45.7985 102.904 46.008 102.863 46.2387L102.201 46.1471C102.247 45.8976 102.349 45.6618 102.5 45.458C102.66 45.2719 102.868 45.134 103.102 45.0597C103.394 44.9601 103.701 44.9116 104.01 44.9163C104.292 44.9066 104.574 44.947 104.842 45.0358C105.022 45.0947 105.184 45.1989 105.312 45.3385C105.418 45.4736 105.491 45.632 105.523 45.8006C105.551 46.0065 105.561 46.2143 105.555 46.422V47.3143C105.546 47.7131 105.561 48.1122 105.599 48.5093C105.628 48.6781 105.684 48.8409 105.766 48.9912H105.057C104.991 48.8382 104.951 48.6754 104.938 48.5093V48.5093ZM98.1662 45.0119H101.321V48.9952H100.644V45.5735H98.8433V49.0112H98.1662V45.0119ZM94.3023 50.5487L94.2266 49.9234C94.3562 49.9607 94.4901 49.9808 94.625 49.9831C94.7503 49.9893 94.8751 49.9633 94.9874 49.9074C95.0785 49.8571 95.1553 49.7845 95.2105 49.6963C95.2933 49.5336 95.3625 49.3644 95.4176 49.1904C95.4176 49.1546 95.4495 49.0988 95.4774 49.0231L93.9637 45.0119H94.6887L95.4973 47.3143C95.6049 47.605 95.7005 47.9118 95.7881 48.2384C95.8651 47.933 95.958 47.6329 96.0669 47.3382L96.9194 45.0079H97.5965L96.0868 49.0749C95.9735 49.3845 95.8405 49.6865 95.6885 49.9791C95.5967 50.1719 95.4601 50.3399 95.2902 50.4691C95.1241 50.5756 94.9298 50.6297 94.7325 50.6244C94.586 50.622 94.4408 50.5965 94.3023 50.5487V50.5487ZM90.8766 45.0119H91.5538V46.7367C91.7152 46.7534 91.8771 46.7093 92.0079 46.6132C92.1762 46.3943 92.3105 46.1512 92.4062 45.8922C92.4883 45.6716 92.5966 45.4616 92.7289 45.2668C92.8028 45.1727 92.9024 45.1022 93.0157 45.0637C93.185 45.0222 93.3593 45.0047 93.5335 45.0119H93.669V45.5695H93.4817C93.3616 45.5532 93.2397 45.5815 93.1392 45.6492C93.0352 45.8016 92.9534 45.9679 92.8962 46.1432C92.8303 46.3372 92.7349 46.5199 92.6134 46.6849C92.5019 46.8041 92.366 46.8978 92.215 46.9597C92.5901 47.1103 92.8965 47.394 93.0754 47.7564L93.8163 48.9952H93.0714L92.3106 47.7723C92.2098 47.5843 92.0747 47.4167 91.9123 47.2784C91.7962 47.196 91.6562 47.154 91.514 47.1589V49.0072H90.8368L90.8766 45.0119ZM87.0446 47.0036C87.0134 47.4139 87.1323 47.8216 87.3792 48.1508C87.4843 48.2709 87.6138 48.3671 87.7591 48.4331C87.9044 48.499 88.0621 48.5331 88.2217 48.5331C88.3813 48.5331 88.539 48.499 88.6843 48.4331C88.8296 48.3671 88.9591 48.2709 89.0642 48.1508C89.3128 47.8148 89.4317 47.4003 89.3988 46.9836C89.4272 46.5816 89.3067 46.1832 89.0602 45.8643C88.9552 45.7449 88.8259 45.6492 88.6809 45.5837C88.536 45.5181 88.3788 45.4842 88.2197 45.4842C88.0607 45.4842 87.9034 45.5181 87.7585 45.5837C87.6136 45.6492 87.4843 45.7449 87.3792 45.8643C87.1274 46.1915 87.0041 46.5996 87.0327 47.0115L87.0446 47.0036ZM86.3515 47.0036C86.327 46.7014 86.3697 46.3976 86.4765 46.1138C86.5832 45.8301 86.7514 45.5735 86.9689 45.3624C87.3155 45.0689 87.7578 44.913 88.2118 44.9242C88.4615 44.9157 88.7103 44.9595 88.9422 45.0528C89.1741 45.1461 89.3839 45.2868 89.5581 45.466C89.7392 45.6675 89.8785 45.903 89.9681 46.1587C90.0576 46.4144 90.0957 46.6853 90.0799 46.9558C90.0972 47.3667 90.0181 47.7759 89.8489 48.1508C89.6981 48.4413 89.4636 48.68 89.1757 48.8359C88.8807 48.9986 88.5486 49.0823 88.2118 49.0789C87.9609 49.0891 87.7108 49.0465 87.4775 48.9538C87.2442 48.8612 87.0329 48.7206 86.8574 48.5411C86.4899 48.1177 86.3026 47.5673 86.3356 47.0075L86.3515 47.0036ZM81.1572 43.4902H85.4792V49.0112H84.7422V44.1276H81.8822V49.0112H81.1572V43.4902Z" fill="#F08221"/>
<path fill-rule="evenodd" clip-rule="evenodd" d="M157.04 41.5674V48.9804H156.084V41.5873C156.228 41.6329 156.379 41.6558 156.53 41.655C156.703 41.654 156.873 41.6244 157.036 41.5674H157.04ZM156.08 29.7129H157.036V38.7153C156.873 38.6583 156.703 38.6287 156.53 38.6276C156.379 38.6269 156.228 38.6497 156.084 38.6954L156.08 29.7129Z" fill="#0087CA"/>
<path fill-rule="evenodd" clip-rule="evenodd" d="M156.566 38.8867C156.814 38.8867 157.057 38.9602 157.263 39.0979C157.469 39.2356 157.63 39.4313 157.725 39.6604C157.82 39.8894 157.845 40.1415 157.797 40.3848C157.749 40.6281 157.63 40.8517 157.455 41.0273C157.28 41.203 157.057 41.3228 156.814 41.3716C156.57 41.4205 156.318 41.3962 156.089 41.3019C155.86 41.2075 155.663 41.0473 155.525 40.8415C155.387 40.6357 155.312 40.3935 155.312 40.1455C155.312 39.8134 155.443 39.4948 155.678 39.2596C155.912 39.0244 156.23 38.8918 156.562 38.8907" fill="#0087CA"/>
<path fill-rule="evenodd" clip-rule="evenodd" d="M147.707 38.1534V32.4054H145.062V32.5488C145.014 34.4382 144.764 36.3171 144.317 38.1534H147.707ZM152.132 43.0808H149.487V40.6908H142.715V43.0808H140.07V38.1534H141.166C141.808 36.2169 142.12 34.1864 142.09 32.1465V29.7007H151.005V38.1534H152.148L152.132 43.0808ZM136.37 27C136.284 27.6017 135.968 28.1469 135.49 28.5216C134.992 28.9151 134.371 29.121 133.737 29.1032C133.108 29.1169 132.494 28.9113 132 28.5216C131.527 28.145 131.219 27.5995 131.14 27H132.387C132.464 27.2906 132.643 27.5442 132.89 27.7157C133.137 27.8871 133.437 27.9652 133.737 27.9361C134.041 27.966 134.346 27.8889 134.599 27.718C134.852 27.547 135.037 27.2931 135.123 27H136.37ZM138.76 29.7007V40.6948H135.689V34.66L131.745 40.6948H128.626V29.7007H131.729V35.7833L135.713 29.7007H138.76ZM117.855 29.7007H126.65V32.0509H121.153V33.7996H126.248V36.0422H121.169V38.2052H126.83V40.6908H117.875L117.855 29.7007ZM110.426 34.4011H111.223C111.698 34.4476 112.174 34.3264 112.569 34.0585C112.697 33.9515 112.799 33.8172 112.868 33.6655C112.937 33.5139 112.971 33.3487 112.968 33.1822C112.976 32.8574 112.856 32.5426 112.633 32.3058C112.457 32.1649 112.255 32.0603 112.038 31.9981C111.821 31.9359 111.594 31.9173 111.37 31.9433H110.43L110.426 34.4011ZM107.132 29.7007H112.597C113.787 29.7007 114.679 29.9928 115.274 30.5771C115.584 30.912 115.822 31.3065 115.975 31.7366C116.128 32.1666 116.192 32.6232 116.162 33.0786C116.189 33.5565 116.117 34.0347 115.95 34.4832C115.782 34.9316 115.524 35.3404 115.19 35.6837C114.542 36.3131 113.555 36.6278 112.227 36.6278H110.426V40.6948H107.128L107.132 29.7007ZM95.6759 29.7007H105.674V32.4174H102.316V40.6948H99.0339V32.4174H95.6759V29.7007ZM84.0565 29.7007H87.3387V33.5407H90.9238V29.7007H94.222V40.6948H90.9238V36.2414H87.3387V40.6948H84.0565V29.7007ZM79.4358 27C79.3494 27.6017 79.034 28.1469 78.5554 28.5216C78.0618 28.9116 77.4476 29.1172 76.8187 29.1032C76.1898 29.1169 75.5758 28.9113 75.082 28.5216C74.6029 28.1478 74.2885 27.6019 74.2056 27H75.4524C75.5294 27.2856 75.7037 27.5353 75.9451 27.7062C76.1865 27.877 76.48 27.9584 76.7749 27.9361C77.0833 27.9729 77.3948 27.8991 77.6537 27.7276C77.9127 27.5562 78.1024 27.2983 78.189 27H79.4358ZM81.8258 29.7007V40.6948H78.7666V34.66L74.7832 40.6948H71.6642V29.7007H74.7832V35.7833L78.7666 29.7007H81.8258ZM65.9601 36.5043L64.7969 32.5528L63.6298 36.5043H65.9601ZM66.6572 38.8943H62.9327L62.399 40.7067H59.041L63.0443 29.7007H66.6293L70.6126 40.6908H67.171L66.6572 38.8943ZM57.9416 40.6948H54.6593V32.4054H52.0781V35.7833C52.1057 36.8089 52.0336 37.8348 51.863 38.8465C51.8119 39.1418 51.698 39.4226 51.5289 39.67C51.3599 39.9175 51.1396 40.1256 50.8831 40.2805C50.352 40.5859 49.5048 40.7386 48.3417 40.7386C47.9275 40.7331 47.5144 40.6931 47.1068 40.6191V38.3924H47.6008C47.7699 38.4098 47.9408 38.3919 48.1026 38.3398C48.2645 38.2877 48.4137 38.2025 48.5409 38.0897C48.7598 37.7556 48.853 37.3547 48.8038 36.9584V29.7007H57.9416V40.6948ZM35.8061 29.7007H39.0884V33.5407H42.6734V29.7007H45.9716V40.6948H42.6853V36.2414H39.1003V40.6948H35.8061V29.7007ZM26.2819 35.2137C26.2819 36.3211 26.481 37.1177 26.8794 37.6037C27.0773 37.8422 27.3277 38.0317 27.611 38.1575C27.8943 38.2832 28.2029 38.3418 28.5125 38.3287C28.825 38.3491 29.138 38.2955 29.4259 38.1723C29.7138 38.0491 29.9686 37.8598 30.1696 37.6196C30.568 37.1456 30.7512 36.2932 30.7512 35.0623C30.7512 34.0293 30.5494 33.2751 30.1457 32.7998C29.9441 32.5629 29.6912 32.3753 29.4061 32.251C29.121 32.1268 28.8113 32.0692 28.5006 32.0828C28.1973 32.0743 27.8961 32.1352 27.62 32.2608C27.3439 32.3865 27.1001 32.5735 26.9072 32.8077C26.485 33.2937 26.2819 34.0944 26.2819 35.2137ZM22.9996 35.2057C22.9996 33.4132 23.4829 32.0164 24.4495 31.0152C25.4161 30.0141 26.7638 29.5148 28.4926 29.5175C30.2639 29.5175 31.6275 30.0074 32.5835 30.9873C33.5395 31.9672 34.0189 33.3428 34.0215 35.1141C34.0635 36.2015 33.8493 37.2835 33.3961 38.2729C32.9928 39.0777 32.361 39.7456 31.5797 40.1929C30.671 40.6787 29.6498 40.9151 28.6201 40.878C27.5947 40.9142 26.5749 40.7124 25.6405 40.2885C24.8299 39.8684 24.1639 39.2148 23.7285 38.4123C23.2092 37.4256 22.9579 36.3199 22.9996 35.2057V35.2057Z" fill="#0087CA"/>
<path d="M180 29.1992H160.7V48.7296H180V29.1992Z" fill="#F08221"/>
<path fill-rule="evenodd" clip-rule="evenodd" d="M170.548 34.4727H173.806L175.164 38.4958L176.487 34.4766H179.546L176.36 42.0131C176.169 42.4838 175.939 42.9381 175.674 43.3715C175.457 43.69 175.159 43.9445 174.81 44.1084C174.308 44.3257 173.763 44.4239 173.217 44.3952C172.606 44.3756 171.997 44.3251 171.392 44.2438V42.2283C171.902 42.2814 172.273 42.3079 172.504 42.3079C173.199 42.3079 173.622 42.0424 173.77 41.5112L170.548 34.4727ZM164.652 38.6432H165.393C165.825 38.6846 166.257 38.5778 166.62 38.3405C166.734 38.2462 166.825 38.1273 166.887 37.9928C166.948 37.8582 166.978 37.7116 166.975 37.5637C166.98 37.4171 166.956 37.2708 166.903 37.1338C166.851 36.9968 166.771 36.872 166.668 36.7671C166.339 36.5146 165.925 36.4003 165.513 36.4484H164.652V38.6432ZM161.621 34.4727H166.616C167.705 34.4727 168.52 34.7382 169.062 35.2693C169.341 35.5646 169.556 35.9146 169.693 36.2972C169.83 36.6798 169.887 37.0866 169.859 37.492C169.882 37.918 169.815 38.3442 169.662 38.7424C169.509 39.1406 169.273 39.5019 168.97 39.8024C168.381 40.3601 167.479 40.6376 166.266 40.6349H164.617V44.2478H161.621V34.4727Z" fill="white"/>
</g>
<defs>
<clipPath id="clip0">
<rect width="157" height="23.6293" fill="white" transform="translate(23 27)"/>
</clipPath>
</defs>
</svg>
