<svg width="182" height="60" viewBox="0 0 182 60" fill="none" xmlns="http://www.w3.org/2000/svg">
<rect width="182" height="60" rx="4" fill="white"/>
<g clip-path="url(#clip0)">
<path fill-rule="evenodd" clip-rule="evenodd" d="M136.874 39.0079H137.551V40.6729H139.428V39.0079H140.105V42.9912H139.428V41.2386H137.551V43.0112H136.874V39.0079ZM134.922 37.5301H135.385C135.381 37.6697 135.348 37.807 135.29 37.9337C135.231 38.0604 135.147 38.1738 135.043 38.267C134.939 38.3602 134.817 38.4312 134.685 38.4758C134.552 38.5203 134.412 38.5373 134.273 38.5259C134.135 38.5379 133.995 38.5215 133.863 38.4777C133.731 38.4339 133.609 38.3636 133.505 38.2711C133.401 38.1787 133.317 38.066 133.258 37.9399C133.199 37.8139 133.166 37.6771 133.162 37.538H133.624C133.639 37.69 133.714 37.8298 133.832 37.9269C133.95 38.0239 134.101 38.0703 134.253 38.0559C134.417 38.0678 134.58 38.0243 134.715 37.9324C134.832 37.8284 134.905 37.6851 134.922 37.5301ZM132.584 39.0119H133.261V42.0631L135.142 39.0119H135.87V42.9952H135.193V39.9758L133.317 43.0072H132.588L132.584 39.0119ZM130.859 41.0036C130.501 41.1309 130.13 41.2164 129.752 41.2585C129.55 41.2799 129.35 41.3253 129.159 41.3939C129.05 41.4389 128.957 41.5151 128.892 41.613C128.815 41.7332 128.784 41.877 128.804 42.0182C128.825 42.1594 128.895 42.2884 129.003 42.3818C129.175 42.5124 129.389 42.5761 129.605 42.561C129.848 42.5658 130.088 42.5067 130.302 42.3898C130.496 42.285 130.652 42.122 130.748 41.9237C130.831 41.7095 130.868 41.48 130.855 41.2505L130.859 41.0036ZM130.899 42.5093C130.685 42.7007 130.44 42.8543 130.174 42.9634C129.935 43.0529 129.681 43.0975 129.425 43.0948C129.059 43.1191 128.698 43.0038 128.414 42.7722C128.298 42.6697 128.206 42.543 128.145 42.4013C128.084 42.2595 128.055 42.106 128.059 41.9516C128.056 41.7641 128.102 41.5789 128.191 41.4138C128.274 41.2547 128.394 41.118 128.541 41.0155C128.69 40.9152 128.854 40.8399 129.027 40.7924C129.225 40.7475 129.426 40.7142 129.629 40.6929C130.034 40.6555 130.434 40.5781 130.824 40.4618C130.824 40.3702 130.824 40.3104 130.824 40.2865C130.835 40.1816 130.823 40.0755 130.79 39.9752C130.758 39.875 130.704 39.7828 130.632 39.705C130.411 39.5374 130.136 39.4566 129.86 39.4779C129.613 39.4594 129.367 39.5178 129.155 39.6452C128.977 39.7987 128.858 40.0081 128.816 40.2387L128.155 40.1471C128.2 39.8975 128.302 39.6617 128.453 39.458C128.612 39.2727 128.819 39.1348 129.051 39.0597C129.343 38.9602 129.65 38.9117 129.959 38.9163C130.242 38.9066 130.523 38.947 130.792 39.0358C130.972 39.0945 131.134 39.1988 131.262 39.3385C131.368 39.4736 131.44 39.632 131.473 39.8006C131.5 40.0065 131.511 40.2143 131.505 40.422V41.3143C131.495 41.7131 131.51 42.1122 131.549 42.5093C131.577 42.6781 131.634 42.8409 131.716 42.9912H131.007C130.945 42.8375 130.909 42.6747 130.899 42.5093V42.5093ZM124.128 39.0119H127.314V42.9952H126.637V39.5735H124.845V41.5652C124.854 41.8726 124.839 42.1803 124.801 42.4854C124.769 42.6434 124.681 42.7848 124.554 42.8837C124.384 43.0055 124.177 43.0646 123.968 43.051C123.809 43.051 123.63 43.051 123.422 43.0231V42.4376H123.717C123.819 42.4441 123.921 42.4292 124.016 42.3937C124.044 42.381 124.07 42.3623 124.09 42.3389C124.111 42.3156 124.126 42.2881 124.136 42.2583C124.164 42.0551 124.173 41.8498 124.163 41.6449L124.128 39.0119ZM119.551 39.0119H120.228V40.6769H122.136V39.0079H122.813V42.9912H122.136V41.2386H120.26V43.0112H119.583L119.551 39.0119ZM115.711 41.0036C115.68 41.4138 115.799 41.8214 116.045 42.1508C116.147 42.2761 116.276 42.377 116.422 42.446C116.568 42.5149 116.728 42.5501 116.89 42.5491C117.051 42.5504 117.21 42.5153 117.356 42.4463C117.501 42.3773 117.629 42.2763 117.73 42.1508C117.979 41.8148 118.098 41.4003 118.065 40.9836C118.093 40.5816 117.973 40.1832 117.726 39.8643C117.621 39.7449 117.492 39.6492 117.347 39.5837C117.202 39.5181 117.045 39.4842 116.886 39.4842C116.727 39.4842 116.57 39.5181 116.425 39.5837C116.28 39.6492 116.15 39.7449 116.045 39.8643C115.807 40.1966 115.696 40.6041 115.735 41.0115L115.711 41.0036ZM115.018 41.0036C114.993 40.7014 115.036 40.3976 115.143 40.1138C115.249 39.8301 115.417 39.5735 115.635 39.3624C115.991 39.0605 116.447 38.904 116.914 38.9242C117.163 38.9157 117.412 38.9595 117.644 39.0528C117.876 39.1461 118.086 39.2868 118.26 39.466C118.441 39.6675 118.58 39.903 118.67 40.1587C118.76 40.4144 118.798 40.6853 118.782 40.9558C118.799 41.3666 118.72 41.7758 118.551 42.1508C118.4 42.4412 118.165 42.6798 117.878 42.8359C117.583 42.9984 117.251 43.0821 116.914 43.0789C116.663 43.0891 116.413 43.0465 116.179 42.9538C115.946 42.8612 115.735 42.7206 115.559 42.5411C115.193 42.1173 115.007 41.5668 115.042 41.0075L115.018 41.0036ZM110.823 38.5259V37.7292H111.532V38.5259H110.823ZM109.425 38.5259V37.7292H110.134V38.5259H109.425ZM109.393 40.6371H111.616C111.609 40.3649 111.52 40.1011 111.361 39.8802C111.262 39.7532 111.135 39.6511 110.99 39.5819C110.845 39.5127 110.685 39.4785 110.524 39.4819C110.377 39.4762 110.231 39.5009 110.094 39.5543C109.957 39.6078 109.832 39.6889 109.728 39.7926C109.514 40.0192 109.393 40.3177 109.389 40.6291L109.393 40.6371ZM111.604 41.7126L112.305 41.8042C112.216 42.1806 112.001 42.5151 111.695 42.7522C111.312 43.004 110.855 43.1207 110.398 43.0839C109.941 43.0471 109.508 42.8589 109.17 42.5491C108.808 42.131 108.625 41.5873 108.66 41.0354C108.625 40.4676 108.811 39.9082 109.178 39.4739C109.349 39.29 109.557 39.1449 109.788 39.0487C110.02 38.9524 110.27 38.9073 110.52 38.9163C110.764 38.9084 111.006 38.953 111.231 39.0472C111.456 39.1414 111.658 39.2828 111.823 39.462C112.182 39.8893 112.363 40.4384 112.329 40.9956C112.329 41.0354 112.329 41.0952 112.329 41.1748H109.357C109.356 41.5444 109.487 41.9021 109.728 42.1826C109.834 42.2965 109.963 42.3866 110.106 42.447C110.25 42.5074 110.405 42.5368 110.56 42.5332C110.787 42.5398 111.01 42.4712 111.194 42.338C111.389 42.1741 111.531 41.9567 111.604 41.7126V41.7126ZM107.644 41.5413L108.306 41.6329C108.256 42.0459 108.058 42.4266 107.748 42.7044C107.444 42.969 107.052 43.111 106.649 43.1028C106.404 43.1129 106.16 43.0701 105.933 42.9773C105.706 42.8845 105.502 42.7439 105.334 42.565C104.977 42.1367 104.799 41.5876 104.836 41.0314C104.828 40.6435 104.902 40.2582 105.051 39.9002C105.18 39.5923 105.409 39.3369 105.701 39.1752C105.991 39.013 106.32 38.9293 106.653 38.9322C107.033 38.9163 107.408 39.0332 107.712 39.2628C107.998 39.499 108.187 39.8323 108.242 40.1989L107.589 40.2985C107.545 40.0659 107.428 39.8536 107.254 39.693C107.093 39.5571 106.887 39.4849 106.676 39.4899C106.519 39.4847 106.363 39.515 106.219 39.5784C106.074 39.6419 105.946 39.7368 105.844 39.8563C105.604 40.1928 105.491 40.6036 105.525 41.0155C105.489 41.4296 105.598 41.8433 105.832 42.1866C105.929 42.3038 106.05 42.3976 106.188 42.461C106.326 42.5245 106.477 42.556 106.629 42.5531C106.874 42.5619 107.112 42.4747 107.294 42.3101C107.5 42.1061 107.624 41.8343 107.644 41.5453V41.5413ZM101.717 42.4495H102.617C102.89 42.4734 103.164 42.4282 103.414 42.3181C103.488 42.2665 103.547 42.197 103.586 42.1161C103.625 42.0352 103.643 41.9457 103.637 41.856C103.636 41.7274 103.593 41.6027 103.514 41.5015C103.435 41.3951 103.32 41.3214 103.191 41.2943C102.98 41.2594 102.767 41.2447 102.554 41.2505H101.757L101.717 42.4495ZM101.717 40.6929H102.434C102.632 40.7008 102.83 40.6861 103.024 40.649C103.135 40.6158 103.234 40.5524 103.311 40.4658C103.395 40.3764 103.44 40.2578 103.438 40.1352C103.447 40.0479 103.43 39.96 103.391 39.8817C103.351 39.8034 103.29 39.738 103.215 39.693C102.974 39.5929 102.714 39.5506 102.454 39.5695H101.713L101.717 40.6929ZM101.024 39.0079H102.582C102.869 38.9956 103.156 39.0278 103.434 39.1035C103.624 39.1706 103.791 39.2926 103.912 39.454C104.047 39.6297 104.117 39.8462 104.111 40.0675C104.115 40.2409 104.074 40.4124 103.992 40.5654C103.908 40.7145 103.785 40.8383 103.637 40.9239C103.826 40.9884 103.989 41.1111 104.103 41.2744C104.228 41.4527 104.292 41.6663 104.286 41.8839C104.288 42.0455 104.253 42.2054 104.184 42.3516C104.115 42.4978 104.014 42.6266 103.888 42.7283C103.571 42.9319 103.197 43.0282 102.821 43.0032H101.024V39.0079ZM96.9451 37.5301H97.4072C97.4033 37.6697 97.3711 37.807 97.3123 37.9337C97.2536 38.0604 97.1697 38.1738 97.0657 38.267C96.9617 38.3602 96.8398 38.4312 96.7074 38.4758C96.5751 38.5203 96.435 38.5373 96.2958 38.5259C96.1571 38.5385 96.0172 38.5225 95.8849 38.4789C95.7525 38.4353 95.6305 38.3651 95.5264 38.2725C95.4222 38.1799 95.3382 38.067 95.2794 37.9407C95.2206 37.8143 95.1883 37.6773 95.1845 37.538H95.6465C95.6617 37.69 95.7364 37.8298 95.8543 37.9269C95.9723 38.0239 96.1239 38.0703 96.2759 38.0559C96.4395 38.0682 96.6024 38.0246 96.738 37.9324C96.8542 37.8284 96.928 37.6851 96.9451 37.5301V37.5301ZM94.6069 39.0119H95.2841V42.0631L97.1642 39.0119H97.8892V42.9952H97.212V39.9758L95.3358 43.0072H94.6069V39.0119ZM92.8821 41.0036C92.524 41.1308 92.1524 41.2163 91.7747 41.2585C91.5722 41.2799 91.373 41.3253 91.1812 41.3939C91.0726 41.4391 90.9798 41.5153 90.9143 41.613C90.8374 41.7332 90.8064 41.877 90.8268 42.0182C90.8473 42.1594 90.918 42.2884 91.0259 42.3818C91.198 42.5124 91.4118 42.5761 91.6273 42.561C91.8707 42.5656 92.1109 42.5065 92.3244 42.3898C92.5181 42.2848 92.6741 42.1218 92.7706 41.9237C92.8538 41.7095 92.8905 41.48 92.8781 41.2505L92.8821 41.0036ZM92.9379 42.5093C92.7238 42.7008 92.4786 42.8543 92.2129 42.9634C91.9748 43.0525 91.7223 43.0971 91.468 43.0948C91.1021 43.1191 90.7406 43.0038 90.4562 42.7722C90.3407 42.6697 90.2491 42.543 90.1878 42.4013C90.1266 42.2595 90.0972 42.106 90.1017 41.9516C90.1002 41.7637 90.1468 41.5786 90.2371 41.4138C90.3201 41.2547 90.4404 41.118 90.5877 41.0155C90.7365 40.9153 90.9006 40.8399 91.0737 40.7924C91.272 40.7474 91.4729 40.7141 91.6751 40.6929C92.0801 40.6555 92.4804 40.5781 92.8701 40.4618C92.8701 40.3702 92.8701 40.3104 92.8701 40.2865C92.8813 40.1816 92.87 40.0755 92.8371 39.9752C92.8041 39.875 92.7502 39.7828 92.6789 39.705C92.4578 39.5374 92.1829 39.4566 91.9062 39.4779C91.6595 39.4594 91.4132 39.5178 91.2011 39.6452C91.0236 39.7985 90.9041 40.008 90.8625 40.2387L90.2013 40.1471C90.2468 39.8976 90.349 39.6618 90.5001 39.458C90.6596 39.2719 90.8679 39.134 91.1015 39.0597C91.3938 38.9601 91.701 38.9116 92.0097 38.9163C92.2921 38.9066 92.574 38.947 92.8423 39.0358C93.0223 39.0947 93.1842 39.1989 93.3123 39.3385C93.4183 39.4736 93.4907 39.632 93.5234 39.8006C93.5507 40.0065 93.5614 40.2143 93.5553 40.422V41.3143C93.5459 41.7131 93.5606 42.1122 93.5991 42.5093C93.6279 42.6781 93.6844 42.8409 93.7664 42.9912H93.0574C92.9914 42.8382 92.951 42.6754 92.9379 42.5093V42.5093ZM86.1662 39.0119H89.321V42.9952H88.6438V39.5735H86.8433V43.0112H86.1662V39.0119ZM82.3023 44.5487L82.2266 43.9234C82.3562 43.9607 82.4901 43.9808 82.625 43.9831C82.7503 43.9893 82.8751 43.9633 82.9874 43.9074C83.0785 43.8571 83.1553 43.7845 83.2105 43.6963C83.2933 43.5336 83.3625 43.3644 83.4176 43.1904C83.4176 43.1546 83.4495 43.0988 83.4774 43.0231L81.9637 39.0119H82.6887L83.4973 41.3143C83.6049 41.605 83.7005 41.9118 83.7881 42.2384C83.8651 41.933 83.958 41.6329 84.0669 41.3382L84.9194 39.0079H85.5965L84.0868 43.0749C83.9735 43.3845 83.8405 43.6865 83.6885 43.9791C83.5967 44.1719 83.4601 44.3399 83.2902 44.4691C83.1241 44.5756 82.9298 44.6297 82.7325 44.6244C82.586 44.622 82.4408 44.5965 82.3023 44.5487V44.5487ZM78.8766 39.0119H79.5538V40.7367C79.7152 40.7534 79.8771 40.7093 80.0079 40.6132C80.1762 40.3943 80.3105 40.1512 80.4062 39.8922C80.4883 39.6716 80.5966 39.4616 80.7289 39.2668C80.8028 39.1727 80.9024 39.1022 81.0157 39.0637C81.185 39.0222 81.3593 39.0047 81.5335 39.0119H81.669V39.5695H81.4817C81.3616 39.5532 81.2397 39.5815 81.1392 39.6492C81.0352 39.8016 80.9534 39.9679 80.8962 40.1432C80.8303 40.3372 80.7349 40.5199 80.6134 40.6849C80.5019 40.8041 80.366 40.8978 80.215 40.9597C80.5901 41.1103 80.8965 41.394 81.0754 41.7564L81.8163 42.9952H81.0714L80.3106 41.7723C80.2098 41.5843 80.0747 41.4167 79.9123 41.2784C79.7962 41.196 79.6562 41.154 79.514 41.1589V43.0072H78.8368L78.8766 39.0119ZM75.0446 41.0036C75.0134 41.4139 75.1323 41.8216 75.3792 42.1508C75.4843 42.2709 75.6138 42.3671 75.7591 42.4331C75.9044 42.499 76.0621 42.5331 76.2217 42.5331C76.3813 42.5331 76.539 42.499 76.6843 42.4331C76.8296 42.3671 76.9591 42.2709 77.0642 42.1508C77.3128 41.8148 77.4317 41.4003 77.3988 40.9836C77.4272 40.5816 77.3067 40.1832 77.0602 39.8643C76.9552 39.7449 76.8259 39.6492 76.6809 39.5837C76.536 39.5181 76.3788 39.4842 76.2197 39.4842C76.0607 39.4842 75.9034 39.5181 75.7585 39.5837C75.6136 39.6492 75.4843 39.7449 75.3792 39.8643C75.1274 40.1915 75.0041 40.5996 75.0327 41.0115L75.0446 41.0036ZM74.3515 41.0036C74.327 40.7014 74.3697 40.3976 74.4765 40.1138C74.5832 39.8301 74.7514 39.5735 74.9689 39.3624C75.3155 39.0689 75.7578 38.913 76.2118 38.9242C76.4615 38.9157 76.7103 38.9595 76.9422 39.0528C77.1741 39.1461 77.3839 39.2868 77.5581 39.466C77.7392 39.6675 77.8785 39.903 77.9681 40.1587C78.0576 40.4144 78.0957 40.6853 78.0799 40.9558C78.0972 41.3667 78.0181 41.7759 77.8489 42.1508C77.6981 42.4413 77.4636 42.68 77.1757 42.8359C76.8807 42.9986 76.5486 43.0823 76.2118 43.0789C75.9609 43.0891 75.7108 43.0465 75.4775 42.9538C75.2442 42.8612 75.0329 42.7206 74.8574 42.5411C74.4899 42.1177 74.3026 41.5673 74.3356 41.0075L74.3515 41.0036ZM69.1572 37.4902H73.4792V43.0112H72.7422V38.1276H69.8822V43.0112H69.1572V37.4902Z" fill="#F08221"/>
<path fill-rule="evenodd" clip-rule="evenodd" d="M145.04 35.5674V42.9804H144.084V35.5873C144.228 35.6329 144.379 35.6558 144.53 35.655C144.703 35.654 144.873 35.6244 145.036 35.5674H145.04ZM144.08 23.7129H145.036V32.7153C144.873 32.6583 144.703 32.6287 144.53 32.6276C144.379 32.6269 144.228 32.6497 144.084 32.6954L144.08 23.7129Z" fill="#0087CA"/>
<path fill-rule="evenodd" clip-rule="evenodd" d="M144.566 32.8867C144.814 32.8867 145.057 32.9602 145.263 33.0979C145.469 33.2356 145.63 33.4313 145.725 33.6604C145.82 33.8894 145.845 34.1415 145.797 34.3848C145.749 34.6281 145.63 34.8517 145.455 35.0273C145.28 35.203 145.057 35.3228 144.814 35.3716C144.57 35.4205 144.318 35.3962 144.089 35.3019C143.86 35.2075 143.663 35.0473 143.525 34.8415C143.387 34.6357 143.312 34.3935 143.312 34.1455C143.312 33.8134 143.443 33.4948 143.678 33.2596C143.912 33.0244 144.23 32.8918 144.562 32.8907" fill="#0087CA"/>
<path fill-rule="evenodd" clip-rule="evenodd" d="M135.707 32.1534V26.4054H133.062V26.5488C133.014 28.4382 132.764 30.3171 132.317 32.1534H135.707ZM140.132 37.0808H137.487V34.6908H130.715V37.0808H128.07V32.1534H129.166C129.808 30.2169 130.12 28.1864 130.09 26.1465V23.7007H139.005V32.1534H140.148L140.132 37.0808ZM124.37 21C124.284 21.6017 123.968 22.1469 123.49 22.5216C122.992 22.9151 122.371 23.121 121.737 23.1032C121.108 23.1169 120.494 22.9113 120 22.5216C119.527 22.145 119.219 21.5995 119.14 21H120.387C120.464 21.2906 120.643 21.5442 120.89 21.7157C121.137 21.8871 121.437 21.9652 121.737 21.9361C122.041 21.966 122.346 21.8889 122.599 21.718C122.852 21.547 123.037 21.2931 123.123 21H124.37ZM126.76 23.7007V34.6948H123.689V28.66L119.745 34.6948H116.626V23.7007H119.729V29.7833L123.713 23.7007H126.76ZM105.855 23.7007H114.65V26.0509H109.153V27.7996H114.248V30.0422H109.169V32.2052H114.83V34.6908H105.875L105.855 23.7007ZM98.4263 28.4011H99.2229C99.698 28.4476 100.174 28.3264 100.569 28.0585C100.697 27.9515 100.799 27.8172 100.868 27.6655C100.937 27.5139 100.971 27.3487 100.968 27.1822C100.976 26.8574 100.856 26.5426 100.633 26.3058C100.457 26.1649 100.255 26.0603 100.038 25.9981C99.8213 25.9359 99.5943 25.9173 99.3703 25.9433H98.4303L98.4263 28.4011ZM95.132 23.7007H100.597C101.787 23.7007 102.679 23.9928 103.274 24.5771C103.584 24.912 103.822 25.3065 103.975 25.7366C104.128 26.1666 104.192 26.6232 104.162 27.0786C104.189 27.5565 104.117 28.0347 103.95 28.4832C103.782 28.9316 103.524 29.3404 103.19 29.6837C102.542 30.3131 101.555 30.6278 100.227 30.6278H98.4263V34.6948H95.1281L95.132 23.7007ZM83.6759 23.7007H93.6741V26.4174H90.3162V34.6948H87.0339V26.4174H83.6759V23.7007ZM72.0565 23.7007H75.3387V27.5407H78.9238V23.7007H82.222V34.6948H78.9238V30.2414H75.3387V34.6948H72.0565V23.7007ZM67.4358 21C67.3494 21.6017 67.034 22.1469 66.5554 22.5216C66.0618 22.9116 65.4476 23.1172 64.8187 23.1032C64.1898 23.1169 63.5758 22.9113 63.082 22.5216C62.6029 22.1478 62.2885 21.6019 62.2056 21H63.4524C63.5294 21.2856 63.7037 21.5353 63.9451 21.7062C64.1865 21.877 64.48 21.9584 64.7749 21.9361C65.0833 21.9729 65.3948 21.8991 65.6537 21.7276C65.9127 21.5562 66.1024 21.2983 66.189 21H67.4358ZM69.8258 23.7007V34.6948H66.7666V28.66L62.7832 34.6948H59.6642V23.7007H62.7832V29.7833L66.7666 23.7007H69.8258ZM53.9601 30.5043L52.7969 26.5528L51.6298 30.5043H53.9601ZM54.6572 32.8943H50.9327L50.399 34.7067H47.041L51.0443 23.7007H54.6293L58.6126 34.6908H55.171L54.6572 32.8943ZM45.9416 34.6948H42.6593V26.4054H40.0781V29.7833C40.1057 30.8089 40.0336 31.8348 39.863 32.8465C39.8119 33.1418 39.698 33.4226 39.5289 33.67C39.3599 33.9175 39.1396 34.1256 38.8831 34.2805C38.352 34.5859 37.5048 34.7386 36.3417 34.7386C35.9275 34.7331 35.5144 34.6931 35.1068 34.6191V32.3924H35.6008C35.7699 32.4098 35.9408 32.3919 36.1026 32.3398C36.2645 32.2877 36.4137 32.2025 36.5409 32.0897C36.7598 31.7556 36.853 31.3547 36.8038 30.9584V23.7007H45.9416V34.6948ZM23.8061 23.7007H27.0884V27.5407H30.6734V23.7007H33.9716V34.6948H30.6853V30.2414H27.1003V34.6948H23.8061V23.7007ZM14.2819 29.2137C14.2819 30.3211 14.481 31.1177 14.8794 31.6037C15.0773 31.8422 15.3277 32.0317 15.611 32.1575C15.8943 32.2832 16.2029 32.3418 16.5125 32.3287C16.825 32.3491 17.138 32.2955 17.4259 32.1723C17.7138 32.0491 17.9686 31.8598 18.1696 31.6196C18.568 31.1456 18.7512 30.2932 18.7512 29.0623C18.7512 28.0293 18.5494 27.2751 18.1457 26.7998C17.9441 26.5629 17.6912 26.3753 17.4061 26.251C17.121 26.1268 16.8113 26.0692 16.5006 26.0828C16.1973 26.0743 15.8961 26.1352 15.62 26.2608C15.3439 26.3865 15.1001 26.5735 14.9072 26.8077C14.485 27.2937 14.2819 28.0944 14.2819 29.2137ZM10.9996 29.2057C10.9996 27.4132 11.4829 26.0164 12.4495 25.0152C13.4161 24.0141 14.7638 23.5148 16.4926 23.5175C18.2639 23.5175 19.6275 24.0074 20.5835 24.9873C21.5395 25.9672 22.0189 27.3428 22.0215 29.1141C22.0635 30.2015 21.8493 31.2835 21.3961 32.2729C20.9928 33.0777 20.361 33.7456 19.5797 34.1929C18.671 34.6787 17.6498 34.9151 16.6201 34.878C15.5947 34.9142 14.5749 34.7124 13.6405 34.2885C12.8299 33.8684 12.1639 33.2148 11.7285 32.4123C11.2092 31.4256 10.9579 30.3199 10.9996 29.2057V29.2057Z" fill="#0087CA"/>
<path d="M168.001 23.1992H148.701V42.7296H168.001V23.1992Z" fill="#F08221"/>
<path fill-rule="evenodd" clip-rule="evenodd" d="M158.548 28.4727H161.806L163.164 32.4958L164.487 28.4766H167.546L164.36 36.0131C164.169 36.4838 163.939 36.9381 163.674 37.3715C163.457 37.69 163.159 37.9445 162.81 38.1084C162.308 38.3257 161.763 38.4239 161.217 38.3952C160.606 38.3756 159.997 38.3251 159.392 38.2438V36.2283C159.902 36.2814 160.273 36.3079 160.504 36.3079C161.199 36.3079 161.622 36.0424 161.77 35.5112L158.548 28.4727ZM152.652 32.6432H153.393C153.825 32.6846 154.257 32.5778 154.62 32.3405C154.734 32.2462 154.825 32.1273 154.887 31.9928C154.948 31.8582 154.978 31.7116 154.975 31.5637C154.98 31.4171 154.956 31.2708 154.903 31.1338C154.851 30.9968 154.771 30.872 154.668 30.7671C154.339 30.5146 153.925 30.4003 153.513 30.4484H152.652V32.6432ZM149.621 28.4727H154.616C155.705 28.4727 156.52 28.7382 157.062 29.2693C157.341 29.5646 157.556 29.9146 157.693 30.2972C157.83 30.6798 157.887 31.0866 157.859 31.492C157.882 31.918 157.815 32.3442 157.662 32.7424C157.509 33.1406 157.273 33.5019 156.97 33.8024C156.381 34.3601 155.479 34.6376 154.266 34.6349H152.617V38.2478H149.621V28.4727Z" fill="white"/>
</g>
<defs>
<clipPath id="clip0">
<rect width="157" height="23.6293" fill="white" transform="translate(11 21)"/>
</clipPath>
</defs>
</svg>
