<svg xmlns="http://www.w3.org/2000/svg" viewBox="0 0 119.33 20.89" width="303" height="56"><defs><style>.cls-1{fill:#222222;}</style></defs><path class="cls-1" d="M107.19,10.08l1.56-.9a7.16,7.16,0,0,0-6.2-3.44A7.36,7.36,0,0,0,95,13.23a7.36,7.36,0,0,0,7.56,7.5,7.11,7.11,0,0,0,6.2-3.46l-1.56-.88a5.28,5.28,0,0,1-4.64,2.6,5.58,5.58,0,0,1-5.79-5.75,5.59,5.59,0,0,1,5.79-5.77A5.19,5.19,0,0,1,107.19,10.08Z"/><path class="cls-1" d="M116.48,14.87c1.2-1.2,2.58-2.82,2.58-4.75a4.26,4.26,0,0,0-4.45-4.36,4.85,4.85,0,0,0-4.48,2.74l1.45.86a3.25,3.25,0,0,1,3-1.92,2.58,2.58,0,0,1,2.69,2.71c0,1.34-1.06,2.58-2.09,3.62L110.1,19v1.44h9.23V18.76h-6.75Z"/><path class="cls-1" d="M16.32,5.64a7.26,7.26,0,0,0-7.41,7.61c0,4.19,2.74,7.58,7.35,7.58a7.07,7.07,0,0,0,6.46-3.57L21.07,16.2a5.19,5.19,0,0,1-4.81,2.86,5.37,5.37,0,0,1-5.43-5.49H23.17V13C23.14,8.35,20.1,5.64,16.32,5.64Zm-5.43,6.26a5.41,5.41,0,0,1,5.37-4.49,4.9,4.9,0,0,1,5,4.49Z"/><polygon class="cls-1" points="0 5.9 0 20.66 1.92 20.66 1.92 7.67 8.85 7.67 8.85 5.9 0 5.9"/><path class="cls-1" d="M85,13C85,8.35,82,5.64,78.19,5.64a7.26,7.26,0,0,0-7.41,7.61c0,4.19,2.74,7.58,7.35,7.58a7.07,7.07,0,0,0,6.46-3.57L82.94,16.2a5.19,5.19,0,0,1-4.81,2.86,5.37,5.37,0,0,1-5.43-5.49H85ZM72.76,11.89a5.41,5.41,0,0,1,5.37-4.49,4.9,4.9,0,0,1,5,4.49Z"/><path class="cls-1" d="M63.4,5.7a5.61,5.61,0,0,0-4.93,2.66A4.79,4.79,0,0,0,54,5.7a5,5,0,0,0-4.34,2.15V5.9H47.7V20.63h1.92v-9.5a3.82,3.82,0,0,1,3.9-3.66c2.42,0,3.72,1.8,3.72,4.19v9h1.92V11.36a3.68,3.68,0,0,1,4-3.9c2.36,0,3.75,1.8,3.75,4.19v9h1.92v-9C68.77,8,66.8,5.7,63.4,5.7Z"/><path class="cls-1" d="M37.43,7.64a7.14,7.14,0,0,0-5-1.95A7.33,7.33,0,0,0,25,13.31a7.3,7.3,0,0,0,7.47,7.58,7,7,0,0,0,5-1.95v1.71h1.89V5.93H37.43ZM32.36,19a5.43,5.43,0,0,1-5.43-5.67,5.44,5.44,0,0,1,5.43-5.7c3.19,0,5.37,2.24,5.37,5.7S35.54,19,32.36,19Z"/><rect class="cls-1" x="42.55" width="1.92" height="20.63"/></svg>