<svg xmlns="http://www.w3.org/2000/svg" viewBox="0 0 132.27 20.92" width="340" height="55"><defs><style>.cls-1{fill:#222222;}</style></defs><path class="cls-1" d="M115.32,9.18h-2.69v8h1v-3.3h1.68a2.39,2.39,0,1,0,0-4.74Zm0,3.8h-1.68V10.12h1.68c1,0,1.68.55,1.68,1.44S116.36,13,115.32,13Z"/><path class="cls-1" d="M120,12.15v-.63h-.94v5.7H120V13.53a1.36,1.36,0,0,1,1.47-1.15h.57v-.93h-.48A2,2,0,0,0,120,12.15Z"/><path class="cls-1" d="M125.43,11.4a3,3,0,1,0,3,3A2.93,2.93,0,0,0,125.43,11.4Zm0,5.05a2,2,0,0,1-2.06-2.09,2.06,2.06,0,1,1,4.13,0A2,2,0,0,1,125.43,16.46Z"/><path class="cls-1" d="M129.45,5.83H111.24a2.82,2.82,0,0,0-2.82,2.82v9.22a2.82,2.82,0,0,0,2.82,2.82h18.21a2.82,2.82,0,0,0,2.82-2.82V8.65A2.82,2.82,0,0,0,129.45,5.83Zm-20,2.82a1.81,1.81,0,0,1,1.81-1.81h18.21a1.81,1.81,0,0,1,1.81,1.81v9.22a1.81,1.81,0,0,1-1.81,1.81H111.24a1.81,1.81,0,0,1-1.81-1.81Z"/><path class="cls-1" d="M100.45,11.93l-.11,0,.07-.09,3.19-4.3V5.88H94.89V7.57h6.62L98,12.26l.73,1.13h.47c1.92,0,3.17,1.1,3.17,2.81S101.17,19,99.24,19A3.13,3.13,0,0,1,96,17l-1.52.89a4.83,4.83,0,0,0,4.76,2.89c2.4,0,5-1.43,5-4.57A4.29,4.29,0,0,0,100.45,11.93Z"/><path class="cls-1" d="M16.34,5.64a7.27,7.27,0,0,0-7.42,7.63c0,4.2,2.75,7.6,7.36,7.6a7.08,7.08,0,0,0,6.47-3.58L21.1,16.23a5.2,5.2,0,0,1-4.82,2.87,5.38,5.38,0,0,1-5.44-5.5H23.2v-.53C23.17,8.36,20.13,5.64,16.34,5.64Zm-5.44,6.27a5.42,5.42,0,0,1,5.38-4.49,4.9,4.9,0,0,1,5,4.49Z"/><polygon class="cls-1" points="0 5.91 0 20.69 1.92 20.69 1.92 7.68 8.87 7.68 8.87 5.91 0 5.91"/><path class="cls-1" d="M85.16,13.06c0-4.7-3.07-7.42-6.86-7.42a7.27,7.27,0,0,0-7.42,7.63c0,4.2,2.75,7.6,7.36,7.6a7.08,7.08,0,0,0,6.47-3.58l-1.66-1.06a5.2,5.2,0,0,1-4.82,2.87,5.38,5.38,0,0,1-5.44-5.5H85.16ZM72.87,11.91a5.42,5.42,0,0,1,5.38-4.49,4.9,4.9,0,0,1,5,4.49Z"/><path class="cls-1" d="M63.5,5.7a5.62,5.62,0,0,0-4.94,2.66A4.79,4.79,0,0,0,54,5.7a5.06,5.06,0,0,0-4.34,2.16v-2H47.77V20.66h1.92V11.14a3.83,3.83,0,0,1,3.9-3.66c2.42,0,3.72,1.8,3.72,4.2v9h1.92V11.38a3.69,3.69,0,0,1,4-3.9c2.36,0,3.75,1.8,3.75,4.2v9h1.92v-9C68.87,8,66.89,5.7,63.5,5.7Z"/><path class="cls-1" d="M37.49,7.65a7.15,7.15,0,0,0-5-2A7.34,7.34,0,0,0,25,13.33a7.32,7.32,0,0,0,7.48,7.6,7,7,0,0,0,5-2v1.71h1.89V5.94H37.49ZM32.4,19A5.44,5.44,0,0,1,27,13.33a5.45,5.45,0,0,1,5.44-5.7c3.19,0,5.38,2.25,5.38,5.7S35.6,19,32.4,19Z"/><rect class="cls-1" x="42.61" width="1.92" height="20.66"/></svg>